<svg width="16" height="16" viewBox="0 0 16 16" fill="none" xmlns="http://www.w3.org/2000/svg">
<path d="M8.00049 6.85434C7.32049 6.85434 6.64049 6.73434 5.99382 6.50101C5.73382 6.40768 5.60049 6.12101 5.69382 5.86101C5.79382 5.60101 6.08049 5.46768 6.34049 5.56101C7.41382 5.94768 8.59382 5.94768 9.66716 5.56101C9.92716 5.46768 10.2138 5.60101 10.3072 5.86101C10.4005 6.12101 10.2672 6.40768 10.0072 6.50101C9.36049 6.73434 8.68049 6.85434 8.00049 6.85434Z" fill="#404040"/>
<path d="M12.7148 15.1654C12.3748 15.1654 12.0015 15.0654 11.6415 14.8587L8.38818 13.052C8.19484 12.9454 7.81484 12.9454 7.62151 13.052L4.36818 14.8587C3.70818 15.2254 3.03484 15.2654 2.52151 14.9587C2.00818 14.6587 1.71484 14.052 1.71484 13.2987V3.90536C1.71484 2.21203 3.09484 0.832031 4.78818 0.832031H11.2215C12.9148 0.832031 14.2948 2.21203 14.2948 3.90536V13.2987C14.2948 14.052 14.0015 14.6587 13.4882 14.9587C13.2548 15.0987 12.9882 15.1654 12.7148 15.1654ZM8.00151 11.972C8.31484 11.972 8.62151 12.0387 8.86818 12.1787L12.1215 13.9854C12.4615 14.1787 12.7748 14.2187 12.9748 14.0987C13.1748 13.9787 13.2882 13.692 13.2882 13.2987V3.90536C13.2882 2.76536 12.3548 1.83203 11.2148 1.83203H4.78818C3.64818 1.83203 2.71484 2.76536 2.71484 3.90536V13.2987C2.71484 13.692 2.82818 13.9854 3.02818 14.0987C3.22818 14.212 3.53484 14.1787 3.88151 13.9854L7.13484 12.1787C7.38151 12.0387 7.68818 11.972 8.00151 11.972Z" fill="#404040"/>
<path d="M12.7148 15.1654C12.3748 15.1654 12.0015 15.0654 11.6415 14.8587L8.38818 13.052C8.19484 12.9454 7.81484 12.9454 7.62151 13.052L4.36818 14.8587C3.70818 15.2254 3.03484 15.2654 2.52151 14.9587C2.00818 14.6587 1.71484 14.052 1.71484 13.2987V3.90536C1.71484 2.21203 3.09484 0.832031 4.78818 0.832031H11.2215C12.9148 0.832031 14.2948 2.21203 14.2948 3.90536V13.2987C14.2948 14.052 14.0015 14.6587 13.4882 14.9587C13.2548 15.0987 12.9882 15.1654 12.7148 15.1654ZM8.00151 11.972C8.31484 11.972 8.62151 12.0387 8.86818 12.1787L12.1215 13.9854C12.4615 14.1787 12.7748 14.2187 12.9748 14.0987C13.1748 13.9787 13.2882 13.692 13.2882 13.2987V3.90536C13.2882 2.76536 12.3548 1.83203 11.2148 1.83203H4.78818C3.64818 1.83203 2.71484 2.76536 2.71484 3.90536V13.2987C2.71484 13.692 2.82818 13.9854 3.02818 14.0987C3.22818 14.212 3.53484 14.1787 3.88151 13.9854L7.13484 12.1787C7.38151 12.0387 7.68818 11.972 8.00151 11.972Z" fill="#404040"/>
</svg>
