<svg width="36" height="36" viewBox="0 0 36 36" fill="none" xmlns="http://www.w3.org/2000/svg">
<path d="M18 34.125C9.105 34.125 1.875 26.895 1.875 18C1.875 9.105 9.105 1.875 18 1.875C26.895 1.875 34.125 9.105 34.125 18C34.125 26.895 26.895 34.125 18 34.125ZM18 4.125C10.35 4.125 4.125 10.35 4.125 18C4.125 25.65 10.35 31.875 18 31.875C25.65 31.875 31.875 25.65 31.875 18C31.875 10.35 25.65 4.125 18 4.125Z" fill="#292D32"/>
<path d="M13.7541 23.3691C13.4691 23.3691 13.1841 23.2641 12.9591 23.0391C12.5241 22.6041 12.5241 21.8841 12.9591 21.4491L21.4491 12.9591C21.8841 12.5241 22.6041 12.5241 23.0391 12.9591C23.4741 13.3941 23.4741 14.1141 23.0391 14.5491L14.5491 23.0391C14.3391 23.2641 14.0391 23.3691 13.7541 23.3691Z" fill="#292D32"/>
<path d="M22.2441 23.3691C21.9591 23.3691 21.6741 23.2641 21.4491 23.0391L12.9591 14.5491C12.5241 14.1141 12.5241 13.3941 12.9591 12.9591C13.3941 12.5241 14.1141 12.5241 14.5491 12.9591L23.0391 21.4491C23.4741 21.8841 23.4741 22.6041 23.0391 23.0391C22.8141 23.2641 22.5291 23.3691 22.2441 23.3691Z" fill="#292D32"/>
</svg>
