<svg width="36" height="36" viewBox="0 0 36 36" fill="none" xmlns="http://www.w3.org/2000/svg">
<path d="M27.75 18.975V24.525C27.75 29.205 23.385 33 18 33C12.615 33 8.25 29.205 8.25 24.525V18.975C8.25 23.655 12.615 27 18 27C23.385 27 27.75 23.655 27.75 18.975Z" fill="#09A64D"/>
<path opacity="0.4" d="M27.75 11.475V18.975C27.75 23.655 23.385 27 18 27C12.615 27 8.25 23.655 8.25 18.975V11.475C8.25 12.84 8.625 14.1 9.285 15.18C10.89 17.82 14.19 19.5 18 19.5C21.81 19.5 25.11 17.82 26.715 15.18C27.375 14.1 27.75 12.84 27.75 11.475Z" fill="#09A64D"/>
<path d="M27.75 11.475C27.75 12.84 27.375 14.1 26.715 15.18C25.11 17.82 21.81 19.5 18 19.5C14.19 19.5 10.89 17.82 9.285 15.18C8.625 14.1 8.25 12.84 8.25 11.475C8.25 6.795 12.615 3 18 3C20.7 3 23.13 3.945 24.9 5.475C26.655 7.02 27.75 9.135 27.75 11.475Z" fill="#09A64D"/>
</svg>
