<svg width="78" height="32" viewBox="0 0 78 32" fill="none" xmlns="http://www.w3.org/2000/svg">
<rect x="0.5" y="0.5" width="77" height="31" rx="9.5" stroke="#FF6060"/>
<path d="M12.9588 20V11.2727H14.2756V15.0653H18.6264V11.2727H19.9474V20H18.6264V16.1946H14.2756V20H12.9588ZM23.6676 20.1449C23.2528 20.1449 22.8778 20.0682 22.5426 19.9148C22.2074 19.7585 21.9418 19.5327 21.7457 19.2372C21.5526 18.9418 21.456 18.5795 21.456 18.1506C21.456 17.7812 21.527 17.4773 21.669 17.2386C21.8111 17 22.0028 16.8111 22.2443 16.6719C22.4858 16.5327 22.7557 16.4276 23.054 16.3565C23.3523 16.2855 23.6563 16.2315 23.9659 16.1946C24.358 16.1491 24.6761 16.1122 24.9205 16.0838C25.1648 16.0526 25.3423 16.0028 25.4531 15.9347C25.5639 15.8665 25.6193 15.7557 25.6193 15.6023V15.5724C25.6193 15.2003 25.5142 14.9119 25.304 14.7074C25.0966 14.5028 24.7869 14.4006 24.375 14.4006C23.946 14.4006 23.608 14.4957 23.3608 14.6861C23.1165 14.8736 22.9474 15.0824 22.8537 15.3125L21.6562 15.0398C21.7983 14.642 22.0057 14.321 22.2784 14.0767C22.554 13.8295 22.8707 13.6506 23.2287 13.5398C23.5866 13.4261 23.9631 13.3693 24.358 13.3693C24.6193 13.3693 24.8963 13.4006 25.1889 13.4631C25.4844 13.5227 25.7599 13.6335 26.0156 13.7955C26.2741 13.9574 26.4858 14.1889 26.6506 14.4901C26.8153 14.7884 26.8977 15.1761 26.8977 15.6534V20H25.6534V19.1051H25.6023C25.5199 19.2699 25.3963 19.4318 25.2315 19.5909C25.0668 19.75 24.8551 19.8821 24.5966 19.9872C24.3381 20.0923 24.0284 20.1449 23.6676 20.1449ZM23.9446 19.1222C24.2969 19.1222 24.598 19.0526 24.848 18.9134C25.1009 18.7741 25.2926 18.5923 25.4233 18.3679C25.5568 18.1406 25.6236 17.8977 25.6236 17.6392V16.7955C25.5781 16.8409 25.4901 16.8835 25.3594 16.9233C25.2315 16.9602 25.0852 16.9929 24.9205 17.0213C24.7557 17.0469 24.5952 17.071 24.4389 17.0938C24.2827 17.1136 24.152 17.1307 24.0469 17.1449C23.7997 17.1761 23.5739 17.2287 23.3693 17.3026C23.1676 17.3764 23.0057 17.483 22.8835 17.6222C22.7642 17.7585 22.7045 17.9403 22.7045 18.1676C22.7045 18.483 22.821 18.7216 23.054 18.8835C23.2869 19.0426 23.5838 19.1222 23.9446 19.1222ZM28.5948 22.4545V13.4545H29.8391V14.5156H29.9457C30.0195 14.3793 30.1261 14.2216 30.2653 14.0426C30.4045 13.8636 30.5977 13.7074 30.8448 13.5739C31.092 13.4375 31.4187 13.3693 31.8249 13.3693C32.3533 13.3693 32.8249 13.5028 33.2397 13.7699C33.6545 14.0369 33.9798 14.4219 34.2156 14.9247C34.4542 15.4276 34.5735 16.0327 34.5735 16.7401C34.5735 17.4474 34.4556 18.054 34.2198 18.5597C33.984 19.0625 33.6602 19.4503 33.2482 19.723C32.8363 19.9929 32.3661 20.1278 31.8377 20.1278C31.44 20.1278 31.1147 20.0611 30.8619 19.9276C30.6119 19.794 30.4158 19.6378 30.2738 19.4588C30.1317 19.2798 30.0224 19.1207 29.9457 18.9815H29.869V22.4545H28.5948ZM29.8434 16.7273C29.8434 17.1875 29.9102 17.5909 30.0437 17.9375C30.1772 18.2841 30.3704 18.5554 30.6232 18.7514C30.8761 18.9446 31.1857 19.0412 31.5522 19.0412C31.9329 19.0412 32.2511 18.9403 32.5067 18.7386C32.7624 18.5341 32.9556 18.2571 33.0863 17.9077C33.2198 17.5582 33.2866 17.1648 33.2866 16.7273C33.2866 16.2955 33.2212 15.9077 33.0906 15.5639C32.9627 15.2202 32.7695 14.9489 32.511 14.75C32.2553 14.5511 31.9357 14.4517 31.5522 14.4517C31.1829 14.4517 30.8704 14.5469 30.6147 14.7372C30.3619 14.9276 30.1701 15.1932 30.0394 15.5341C29.9087 15.875 29.8434 16.2727 29.8434 16.7273ZM40.1474 17.2855V13.4545H41.4258V20H40.1729V18.8665H40.1048C39.9542 19.2159 39.7127 19.5071 39.3803 19.7401C39.0508 19.9702 38.6403 20.0852 38.1488 20.0852C37.7283 20.0852 37.3562 19.9929 37.0323 19.8082C36.7113 19.6207 36.4585 19.3438 36.2738 18.9773C36.092 18.6108 36.0011 18.1577 36.0011 17.6179V13.4545H37.2752V17.4645C37.2752 17.9105 37.3988 18.2656 37.646 18.5298C37.8931 18.794 38.2141 18.9261 38.609 18.9261C38.8477 18.9261 39.0849 18.8665 39.3207 18.7472C39.5593 18.6278 39.7567 18.4474 39.913 18.206C40.0721 17.9645 40.1502 17.6577 40.1474 17.2855ZM48.0426 15.0526L46.8878 15.2571C46.8395 15.1094 46.7628 14.9687 46.6577 14.8352C46.5554 14.7017 46.4162 14.5923 46.2401 14.5071C46.0639 14.4219 45.8438 14.3793 45.5795 14.3793C45.2188 14.3793 44.9176 14.4602 44.6761 14.6222C44.4347 14.7812 44.3139 14.9872 44.3139 15.2401C44.3139 15.4588 44.3949 15.6349 44.5568 15.7685C44.7188 15.902 44.9801 16.0114 45.3409 16.0966L46.3807 16.3352C46.983 16.4744 47.4318 16.6889 47.7273 16.9787C48.0227 17.2685 48.1705 17.6449 48.1705 18.108C48.1705 18.5 48.0568 18.8494 47.8295 19.1562C47.6051 19.4602 47.2912 19.6989 46.8878 19.8722C46.4872 20.0455 46.0227 20.1321 45.4943 20.1321C44.7614 20.1321 44.1634 19.9759 43.7003 19.6634C43.2372 19.348 42.9531 18.9006 42.848 18.321L44.0795 18.1335C44.1563 18.4545 44.3139 18.6974 44.5526 18.8622C44.7912 19.0241 45.1023 19.1051 45.4858 19.1051C45.9034 19.1051 46.2372 19.0185 46.4872 18.8452C46.7372 18.669 46.8622 18.4545 46.8622 18.2017C46.8622 17.9972 46.7855 17.8253 46.6321 17.6861C46.4815 17.5469 46.25 17.4418 45.9375 17.3707L44.8295 17.1278C44.2188 16.9886 43.767 16.767 43.4744 16.4631C43.1847 16.1591 43.0398 15.7741 43.0398 15.3082C43.0398 14.9219 43.1477 14.5838 43.3636 14.294C43.5795 14.0043 43.8778 13.7784 44.2585 13.6165C44.6392 13.4517 45.0753 13.3693 45.5668 13.3693C46.2741 13.3693 46.831 13.5227 47.2372 13.8295C47.6435 14.1335 47.9119 14.5412 48.0426 15.0526Z" fill="black"/>
<path d="M67.9985 12.4883C67.9851 12.4883 67.9651 12.4883 67.9451 12.4883C64.4185 12.1349 60.8985 12.0016 57.4118 12.3549L56.0518 12.4883C55.7718 12.5149 55.5251 12.3149 55.4985 12.0349C55.4718 11.7549 55.6718 11.5149 55.9451 11.4883L57.3051 11.3549C60.8518 10.9949 64.4451 11.1349 68.0451 11.4883C68.3185 11.5149 68.5185 11.7616 68.4918 12.0349C68.4718 12.2949 68.2518 12.4883 67.9985 12.4883Z" fill="black"/>
<path d="M59.6685 11.812C59.6418 11.812 59.6151 11.812 59.5818 11.8054C59.3151 11.7587 59.1285 11.4987 59.1751 11.232L59.3218 10.3587C59.4285 9.7187 59.5751 8.83203 61.1285 8.83203H62.8751C64.4351 8.83203 64.5818 9.75203 64.6818 10.3654L64.8285 11.232C64.8751 11.5054 64.6885 11.7654 64.4218 11.8054C64.1485 11.852 63.8885 11.6654 63.8485 11.3987L63.7018 10.532C63.6085 9.95203 63.5885 9.8387 62.8818 9.8387H61.1351C60.4285 9.8387 60.4151 9.93203 60.3151 10.5254L60.1618 11.392C60.1218 11.6387 59.9085 11.812 59.6685 11.812Z" fill="black"/>
<path d="M64.1416 23.1677H59.8616C57.5349 23.1677 57.4416 21.881 57.3682 20.841L56.9349 14.1277C56.9149 13.8544 57.1282 13.6144 57.4016 13.5944C57.6816 13.581 57.9149 13.7877 57.9349 14.061L58.3682 20.7744C58.4416 21.7877 58.4682 22.1677 59.8616 22.1677H64.1416C65.5416 22.1677 65.5682 21.7877 65.6349 20.7744L66.0682 14.061C66.0882 13.7877 66.3282 13.581 66.6016 13.5944C66.8749 13.6144 67.0882 13.8477 67.0682 14.1277L66.6349 20.841C66.5616 21.881 66.4682 23.1677 64.1416 23.1677Z" fill="black"/>
<path d="M63.1067 19.5H60.8867C60.6134 19.5 60.3867 19.2733 60.3867 19C60.3867 18.7267 60.6134 18.5 60.8867 18.5H63.1067C63.3801 18.5 63.6067 18.7267 63.6067 19C63.6067 19.2733 63.3801 19.5 63.1067 19.5Z" fill="black"/>
<path d="M63.6654 16.832H60.332C60.0587 16.832 59.832 16.6054 59.832 16.332C59.832 16.0587 60.0587 15.832 60.332 15.832H63.6654C63.9387 15.832 64.1654 16.0587 64.1654 16.332C64.1654 16.6054 63.9387 16.832 63.6654 16.832Z" fill="black"/>
</svg>
