<svg width="42" height="16" viewBox="0 0 42 16" fill="none" xmlns="http://www.w3.org/2000/svg">
<path d="M9.9987 15.1654H5.9987C2.3787 15.1654 0.832031 13.6187 0.832031 9.9987V5.9987C0.832031 2.3787 2.3787 0.832031 5.9987 0.832031H7.33203C7.60536 0.832031 7.83203 1.0587 7.83203 1.33203C7.83203 1.60536 7.60536 1.83203 7.33203 1.83203H5.9987C2.92536 1.83203 1.83203 2.92536 1.83203 5.9987V9.9987C1.83203 13.072 2.92536 14.1654 5.9987 14.1654H9.9987C13.072 14.1654 14.1654 13.072 14.1654 9.9987V8.66536C14.1654 8.39203 14.392 8.16536 14.6654 8.16536C14.9387 8.16536 15.1654 8.39203 15.1654 8.66536V9.9987C15.1654 13.6187 13.6187 15.1654 9.9987 15.1654Z" fill="#292D32"/>
<path d="M5.66493 11.7924C5.25826 11.7924 4.88493 11.6457 4.6116 11.3791C4.28493 11.0524 4.14493 10.5791 4.21826 10.0791L4.50493 8.0724C4.55826 7.68573 4.8116 7.18573 5.08493 6.9124L10.3383 1.65906C11.6649 0.332396 13.0116 0.332396 14.3383 1.65906C15.0649 2.38573 15.3916 3.12573 15.3249 3.86573C15.2649 4.46573 14.9449 5.0524 14.3383 5.6524L9.08493 10.9057C8.8116 11.1791 8.3116 11.4324 7.92493 11.4857L5.91826 11.7724C5.8316 11.7924 5.74493 11.7924 5.66493 11.7924ZM11.0449 2.36573L5.7916 7.61906C5.66493 7.74573 5.51826 8.03906 5.4916 8.2124L5.20493 10.2191C5.17826 10.4124 5.21826 10.5724 5.31826 10.6724C5.41826 10.7724 5.57826 10.8124 5.7716 10.7857L7.77826 10.4991C7.9516 10.4724 8.2516 10.3257 8.3716 10.1991L13.6249 4.94573C14.0583 4.5124 14.2849 4.12573 14.3183 3.76573C14.3583 3.3324 14.1316 2.8724 13.6249 2.35906C12.5583 1.2924 11.8249 1.5924 11.0449 2.36573Z" fill="#292D32"/>
<path d="M13.233 6.55221C13.1864 6.55221 13.1397 6.54555 13.0997 6.53221C11.3464 6.03888 9.95305 4.64555 9.45971 2.89221C9.38638 2.62555 9.53971 2.35221 9.80638 2.27221C10.073 2.19888 10.3464 2.35221 10.4197 2.61888C10.8197 4.03888 11.9464 5.16555 13.3664 5.56555C13.633 5.63888 13.7864 5.91888 13.713 6.18554C13.653 6.41221 13.453 6.55221 13.233 6.55221Z" fill="#292D32"/>
<path d="M21.0568 12V3.27273H26.3239V4.21023H22.1136V7.15909H26.0511V8.09659H22.1136V11.0625H26.392V12H21.0568ZM30.3218 12.1364C29.7764 12.1364 29.2948 11.9986 28.8772 11.723C28.4596 11.4446 28.1329 11.0526 27.8971 10.5469C27.6613 10.0384 27.5434 9.4375 27.5434 8.74432C27.5434 8.05682 27.6613 7.46023 27.8971 6.95455C28.1329 6.44886 28.461 6.05824 28.8815 5.78267C29.3019 5.5071 29.7877 5.36932 30.3389 5.36932C30.765 5.36932 31.1016 5.44034 31.3488 5.58239C31.5988 5.72159 31.7891 5.88068 31.9198 6.05966C32.0533 6.2358 32.157 6.38068 32.2309 6.49432H32.3161V3.27273H33.3218V12H32.3502V10.9943H32.2309C32.157 11.1136 32.0519 11.2642 31.9156 11.446C31.7792 11.625 31.5846 11.7855 31.3318 11.9276C31.0789 12.0668 30.7423 12.1364 30.3218 12.1364ZM30.4582 11.233C30.8616 11.233 31.2025 11.1278 31.4809 10.9176C31.7593 10.7045 31.971 10.4105 32.1158 10.0355C32.2607 9.65767 32.3332 9.22159 32.3332 8.72727C32.3332 8.23864 32.2622 7.81108 32.1201 7.4446C31.9781 7.07528 31.7678 6.78835 31.4894 6.58381C31.211 6.37642 30.8673 6.27273 30.4582 6.27273C30.032 6.27273 29.6769 6.3821 29.3928 6.60085C29.1116 6.81676 28.8999 7.1108 28.7579 7.48295C28.6187 7.85227 28.5491 8.26705 28.5491 8.72727C28.5491 9.19318 28.6201 9.61648 28.7622 9.99716C28.907 10.375 29.1201 10.6761 29.4014 10.9006C29.6855 11.1222 30.0377 11.233 30.4582 11.233ZM35.0612 12V5.45455H36.0669V12H35.0612ZM35.5726 4.36364C35.3766 4.36364 35.2076 4.29688 35.0655 4.16335C34.9263 4.02983 34.8567 3.86932 34.8567 3.68182C34.8567 3.49432 34.9263 3.33381 35.0655 3.20028C35.2076 3.06676 35.3766 3 35.5726 3C35.7686 3 35.9362 3.06676 36.0754 3.20028C36.2175 3.33381 36.2885 3.49432 36.2885 3.68182C36.2885 3.86932 36.2175 4.02983 36.0754 4.16335C35.9362 4.29688 35.7686 4.36364 35.5726 4.36364ZM40.5134 5.45455V6.30682H37.1213V5.45455H40.5134ZM38.11 3.88636H39.1157V10.125C39.1157 10.4091 39.1569 10.6222 39.2392 10.7642C39.3245 10.9034 39.4324 10.9972 39.5631 11.0455C39.6966 11.0909 39.8372 11.1136 39.985 11.1136C40.0958 11.1136 40.1867 11.108 40.2577 11.0966C40.3287 11.0824 40.3855 11.071 40.4282 11.0625L40.6327 11.9659C40.5645 11.9915 40.4694 12.017 40.3472 12.0426C40.225 12.071 40.0702 12.0852 39.8827 12.0852C39.5986 12.0852 39.3202 12.0241 39.0475 11.902C38.7776 11.7798 38.5532 11.5938 38.3742 11.3438C38.198 11.0938 38.11 10.7784 38.11 10.3977V3.88636Z" fill="#808080"/>
</svg>
