<svg width="55" height="32" viewBox="0 0 55 32" fill="none" xmlns="http://www.w3.org/2000/svg">
<rect width="55" height="32" rx="10" fill="#404040"/>
<path d="M16.9588 20V11.2727H22.4304V12.4062H18.2756V15.0653H22.1449V16.1946H18.2756V18.8665H22.4815V20H16.9588ZM26.5373 20.1278C26.0089 20.1278 25.5373 19.9929 25.1225 19.723C24.7106 19.4503 24.3867 19.0625 24.1509 18.5597C23.918 18.054 23.8015 17.4474 23.8015 16.7401C23.8015 16.0327 23.9194 15.4276 24.1552 14.9247C24.3938 14.4219 24.7205 14.0369 25.1353 13.7699C25.5501 13.5028 26.0202 13.3693 26.5458 13.3693C26.9521 13.3693 27.2788 13.4375 27.5259 13.5739C27.7759 13.7074 27.9691 13.8636 28.1055 14.0426C28.2447 14.2216 28.3526 14.3793 28.4293 14.5156H28.506V11.2727H29.7802V20H28.5359V18.9815H28.4293C28.3526 19.1207 28.2418 19.2798 28.0969 19.4588C27.9549 19.6378 27.7589 19.794 27.5089 19.9276C27.2589 20.0611 26.935 20.1278 26.5373 20.1278ZM26.8185 19.0412C27.185 19.0412 27.4947 18.9446 27.7475 18.7514C28.0032 18.5554 28.1964 18.2841 28.3271 17.9375C28.4606 17.5909 28.5273 17.1875 28.5273 16.7273C28.5273 16.2727 28.462 15.875 28.3313 15.5341C28.2006 15.1932 28.0089 14.9276 27.756 14.7372C27.5032 14.5469 27.1907 14.4517 26.8185 14.4517C26.435 14.4517 26.1154 14.5511 25.8597 14.75C25.604 14.9489 25.4109 15.2202 25.2802 15.5639C25.1523 15.9077 25.0884 16.2955 25.0884 16.7273C25.0884 17.1648 25.1538 17.5582 25.2844 17.9077C25.4151 18.2571 25.6083 18.5341 25.864 18.7386C26.1225 18.9403 26.4407 19.0412 26.8185 19.0412ZM31.5987 20V13.4545H32.8729V20H31.5987ZM32.2422 12.4446C32.0206 12.4446 31.8303 12.3707 31.6712 12.223C31.5149 12.0724 31.4368 11.8935 31.4368 11.6861C31.4368 11.4759 31.5149 11.2969 31.6712 11.1491C31.8303 10.9986 32.0206 10.9233 32.2422 10.9233C32.4638 10.9233 32.6527 10.9986 32.8089 11.1491C32.968 11.2969 33.0476 11.4759 33.0476 11.6861C33.0476 11.8935 32.968 12.0724 32.8089 12.223C32.6527 12.3707 32.4638 12.4446 32.2422 12.4446ZM37.6424 13.4545V14.4773H34.0671V13.4545H37.6424ZM35.0259 11.8864H36.3001V18.0781C36.3001 18.3253 36.337 18.5114 36.4109 18.6364C36.4847 18.7585 36.5799 18.8423 36.6964 18.8878C36.8157 18.9304 36.945 18.9517 37.0842 18.9517C37.1864 18.9517 37.2759 18.9446 37.3526 18.9304C37.4293 18.9162 37.489 18.9048 37.5316 18.8963L37.7617 19.9489C37.6879 19.9773 37.5827 20.0057 37.4464 20.0341C37.31 20.0653 37.1396 20.0824 36.935 20.0852C36.5998 20.0909 36.2873 20.0312 35.9975 19.9062C35.7077 19.7812 35.4734 19.5881 35.2944 19.3267C35.1154 19.0653 35.0259 18.7372 35.0259 18.3423V11.8864Z" fill="white"/>
</svg>
