<svg width="16" height="16" viewBox="0 0 16 16" fill="none" xmlns="http://www.w3.org/2000/svg">
<path d="M3.43359 15.1654C3.16026 15.1654 2.93359 14.9387 2.93359 14.6654V1.33203C2.93359 1.0587 3.16026 0.832031 3.43359 0.832031C3.70693 0.832031 3.93359 1.0587 3.93359 1.33203V14.6654C3.93359 14.9387 3.70693 15.1654 3.43359 15.1654Z" fill="#404040"/>
<path d="M10.9003 11.168H3.43359C3.16026 11.168 2.93359 10.9413 2.93359 10.668C2.93359 10.3946 3.16026 10.168 3.43359 10.168H10.9003C11.6269 10.168 11.9669 9.97464 12.0336 9.80797C12.1003 9.6413 12.0003 9.26797 11.4803 8.75464L10.6803 7.95464C10.3536 7.66797 10.1536 7.23464 10.1336 6.75464C10.1136 6.24797 10.3136 5.74797 10.6803 5.3813L11.4803 4.5813C11.9736 4.08797 12.1269 3.68797 12.0536 3.51464C11.9803 3.3413 11.6003 3.16797 10.9003 3.16797H3.43359C3.15359 3.16797 2.93359 2.9413 2.93359 2.66797C2.93359 2.39464 3.16026 2.16797 3.43359 2.16797H10.9003C12.3603 2.16797 12.8269 2.77464 12.9803 3.13464C13.1269 3.49464 13.2269 4.25464 12.1869 5.29464L11.3869 6.09464C11.2203 6.2613 11.1269 6.49464 11.1336 6.72797C11.1403 6.92797 11.2203 7.10797 11.3603 7.23464L12.1869 8.05464C13.2069 9.07464 13.1069 9.83464 12.9603 10.2013C12.8069 10.5546 12.3336 11.168 10.9003 11.168Z" fill="#404040"/>
</svg>
