<svg width="56" height="16" viewBox="0 0 56 16" fill="none" xmlns="http://www.w3.org/2000/svg">
<path d="M13.9985 4.48828C13.9851 4.48828 13.9651 4.48828 13.9451 4.48828C10.4185 4.13494 6.89848 4.00161 3.41181 4.35495L2.05181 4.48828C1.77181 4.51494 1.52515 4.31495 1.49848 4.03495C1.47181 3.75495 1.67181 3.51494 1.94515 3.48828L3.30515 3.35495C6.85181 2.99495 10.4451 3.13494 14.0451 3.48828C14.3185 3.51494 14.5185 3.76161 14.4918 4.03495C14.4718 4.29495 14.2518 4.48828 13.9985 4.48828Z" fill="#292D32"/>
<path d="M5.66846 3.81203C5.6418 3.81203 5.61513 3.81203 5.5818 3.80536C5.31513 3.7587 5.12846 3.4987 5.17513 3.23203L5.3218 2.3587C5.42846 1.7187 5.57513 0.832031 7.12846 0.832031H8.87513C10.4351 0.832031 10.5818 1.75203 10.6818 2.36536L10.8285 3.23203C10.8751 3.50536 10.6885 3.76536 10.4218 3.80536C10.1485 3.85203 9.88846 3.66536 9.84846 3.3987L9.7018 2.53203C9.60846 1.95203 9.58846 1.8387 8.8818 1.8387H7.13513C6.42846 1.8387 6.41513 1.93203 6.31513 2.52536L6.1618 3.39203C6.1218 3.6387 5.90846 3.81203 5.66846 3.81203Z" fill="#292D32"/>
<path d="M10.1416 15.1677H5.86156C3.53489 15.1677 3.44156 13.881 3.36823 12.841L2.93489 6.12769C2.91489 5.85436 3.12823 5.61436 3.40156 5.59436C3.68156 5.58103 3.91489 5.78769 3.93489 6.06103L4.36823 12.7744C4.44156 13.7877 4.46823 14.1677 5.86156 14.1677H10.1416C11.5416 14.1677 11.5682 13.7877 11.6349 12.7744L12.0682 6.06103C12.0882 5.78769 12.3282 5.58103 12.6016 5.59436C12.8749 5.61436 13.0882 5.84769 13.0682 6.12769L12.6349 12.841C12.5616 13.881 12.4682 15.1677 10.1416 15.1677Z" fill="#292D32"/>
<path d="M9.10672 11.5H6.88672C6.61339 11.5 6.38672 11.2733 6.38672 11C6.38672 10.7267 6.61339 10.5 6.88672 10.5H9.10672C9.38005 10.5 9.60672 10.7267 9.60672 11C9.60672 11.2733 9.38005 11.5 9.10672 11.5Z" fill="#292D32"/>
<path d="M9.66536 8.83203H6.33203C6.0587 8.83203 5.83203 8.60536 5.83203 8.33203C5.83203 8.0587 6.0587 7.83203 6.33203 7.83203H9.66536C9.9387 7.83203 10.1654 8.0587 10.1654 8.33203C10.1654 8.60536 9.9387 8.83203 9.66536 8.83203Z" fill="#292D32"/>
<path d="M21.0568 12V3.27273H22.1136V7.15909H26.767V3.27273H27.8239V12H26.767V8.09659H22.1136V12H21.0568ZM31.4873 12.1534C31.0725 12.1534 30.6961 12.0753 30.358 11.919C30.02 11.7599 29.7515 11.5312 29.5526 11.233C29.3538 10.9318 29.2543 10.5682 29.2543 10.142C29.2543 9.76705 29.3282 9.46307 29.4759 9.23011C29.6237 8.99432 29.8211 8.80966 30.0683 8.67614C30.3154 8.54261 30.5882 8.44318 30.8864 8.37784C31.1876 8.30966 31.4901 8.25568 31.7941 8.21591C32.1918 8.16477 32.5143 8.12642 32.7614 8.10085C33.0114 8.07244 33.1933 8.02557 33.3069 7.96023C33.4234 7.89489 33.4816 7.78125 33.4816 7.61932V7.58523C33.4816 7.16477 33.3666 6.83807 33.1364 6.60511C32.9092 6.37216 32.564 6.25568 32.1009 6.25568C31.6208 6.25568 31.2444 6.3608 30.9717 6.57102C30.6989 6.78125 30.5072 7.00568 30.3964 7.24432L29.4418 6.90341C29.6123 6.50568 29.8396 6.19602 30.1237 5.97443C30.4106 5.75 30.7231 5.59375 31.0612 5.50568C31.4021 5.41477 31.7373 5.36932 32.0668 5.36932C32.2771 5.36932 32.5185 5.39489 32.7913 5.44602C33.0668 5.49432 33.3325 5.59517 33.5882 5.74858C33.8467 5.90199 34.0612 6.13352 34.2316 6.44318C34.4021 6.75284 34.4873 7.16761 34.4873 7.6875V12H33.4816V11.1136H33.4305C33.3623 11.2557 33.2487 11.4077 33.0896 11.5696C32.9305 11.7315 32.7188 11.8693 32.4546 11.983C32.1904 12.0966 31.868 12.1534 31.4873 12.1534ZM31.6407 11.25C32.0384 11.25 32.3737 11.1719 32.6464 11.0156C32.922 10.8594 33.1293 10.6577 33.2685 10.4105C33.4106 10.1634 33.4816 9.90341 33.4816 9.63068V8.71023C33.439 8.76136 33.3453 8.80824 33.2004 8.85085C33.0583 8.89062 32.8935 8.92614 32.706 8.95739C32.5214 8.9858 32.341 9.01136 32.1649 9.03409C31.9916 9.05398 31.8509 9.07102 31.743 9.08523C31.4816 9.11932 31.2373 9.17472 31.01 9.25142C30.7856 9.32528 30.6038 9.4375 30.4646 9.58807C30.3282 9.7358 30.26 9.9375 30.26 10.1932C30.26 10.5426 30.3893 10.8068 30.6478 10.9858C30.9092 11.1619 31.2401 11.25 31.6407 11.25ZM36.0808 14.4545V5.45455H37.0524V6.49432H37.1717C37.2455 6.38068 37.3478 6.2358 37.4785 6.05966C37.612 5.88068 37.8024 5.72159 38.0495 5.58239C38.2995 5.44034 38.6376 5.36932 39.0637 5.36932C39.6149 5.36932 40.1007 5.5071 40.5211 5.78267C40.9416 6.05824 41.2697 6.44886 41.5055 6.95455C41.7413 7.46023 41.8592 8.05682 41.8592 8.74432C41.8592 9.4375 41.7413 10.0384 41.5055 10.5469C41.2697 11.0526 40.943 11.4446 40.5254 11.723C40.1078 11.9986 39.6262 12.1364 39.0808 12.1364C38.6603 12.1364 38.3237 12.0668 38.0708 11.9276C37.818 11.7855 37.6234 11.625 37.487 11.446C37.3507 11.2642 37.2455 11.1136 37.1717 10.9943H37.0865V14.4545H36.0808ZM37.0694 8.72727C37.0694 9.22159 37.1419 9.65767 37.2867 10.0355C37.4316 10.4105 37.6433 10.7045 37.9217 10.9176C38.2001 11.1278 38.541 11.233 38.9444 11.233C39.3649 11.233 39.7157 11.1222 39.997 10.9006C40.2811 10.6761 40.4941 10.375 40.6362 9.99716C40.7811 9.61648 40.8535 9.19318 40.8535 8.72727C40.8535 8.26705 40.7825 7.85227 40.6404 7.48295C40.5012 7.1108 40.2896 6.81676 40.0055 6.60085C39.7242 6.3821 39.3705 6.27273 38.9444 6.27273C38.5353 6.27273 38.1916 6.37642 37.9132 6.58381C37.6348 6.78835 37.4245 7.07528 37.2825 7.4446C37.1404 7.81108 37.0694 8.23864 37.0694 8.72727ZM47.2762 9.32386V5.45455H48.2819V12H47.2762V10.892H47.208C47.0546 11.2244 46.8159 11.5071 46.4921 11.7401C46.1682 11.9702 45.7591 12.0852 45.2648 12.0852C44.8557 12.0852 44.4921 11.9957 44.1739 11.8168C43.8557 11.6349 43.6057 11.3622 43.4239 10.9986C43.2421 10.6321 43.1512 10.1705 43.1512 9.61364V5.45455H44.1569V9.54545C44.1569 10.0227 44.2904 10.4034 44.5574 10.6875C44.8273 10.9716 45.1711 11.1136 45.5887 11.1136C45.8387 11.1136 46.0929 11.0497 46.3515 10.9219C46.6128 10.794 46.8316 10.598 47.0077 10.3338C47.1867 10.0696 47.2762 9.73295 47.2762 9.32386ZM54.5181 6.92045L53.6147 7.17614C53.5579 7.02557 53.474 6.87926 53.3633 6.73722C53.2553 6.59233 53.1076 6.47301 52.9201 6.37926C52.7326 6.28551 52.4925 6.23864 52.1999 6.23864C51.7993 6.23864 51.4655 6.33097 51.1985 6.51562C50.9343 6.69744 50.8022 6.92898 50.8022 7.21023C50.8022 7.46023 50.8931 7.65767 51.0749 7.80256C51.2567 7.94744 51.5408 8.06818 51.9272 8.16477L52.8988 8.40341C53.484 8.54545 53.9201 8.76278 54.207 9.0554C54.4939 9.34517 54.6374 9.71875 54.6374 10.1761C54.6374 10.5511 54.5294 10.8864 54.3135 11.1818C54.1005 11.4773 53.8022 11.7102 53.4187 11.8807C53.0351 12.0511 52.5891 12.1364 52.0806 12.1364C51.413 12.1364 50.8604 11.9915 50.4229 11.7017C49.9854 11.4119 49.7084 10.9886 49.5919 10.4318L50.5465 10.1932C50.6374 10.5455 50.8093 10.8097 51.0621 10.9858C51.3178 11.1619 51.6516 11.25 52.0635 11.25C52.5323 11.25 52.9044 11.1506 53.18 10.9517C53.4584 10.75 53.5976 10.5085 53.5976 10.2273C53.5976 10 53.5181 9.80966 53.359 9.65625C53.1999 9.5 52.9556 9.38352 52.626 9.30682L51.5351 9.05114C50.9357 8.90909 50.4954 8.68892 50.2141 8.39062C49.9357 8.08949 49.7965 7.71307 49.7965 7.26136C49.7965 6.89205 49.9002 6.56534 50.1076 6.28125C50.3178 5.99716 50.6033 5.77415 50.9641 5.61222C51.3277 5.45028 51.7397 5.36932 52.1999 5.36932C52.8476 5.36932 53.3562 5.51136 53.7255 5.79545C54.0976 6.07955 54.3618 6.45455 54.5181 6.92045Z" fill="#808080"/>
</svg>
