<svg width="98" height="47" viewBox="0 0 98 47" fill="none" xmlns="http://www.w3.org/2000/svg">
<rect x="0.5" y="0.5" width="97" height="46" rx="9.5" stroke="#BFBFBF"/>
<path d="M14.9995 29.281C14.8729 29.281 14.7462 29.2343 14.6462 29.1343L10.2995 24.7877C9.59286 24.081 9.59286 22.921 10.2995 22.2143L14.6462 17.8677C14.8395 17.6743 15.1595 17.6743 15.3529 17.8677C15.5462 18.061 15.5462 18.381 15.3529 18.5743L11.0062 22.921C10.6862 23.241 10.6862 23.761 11.0062 24.081L15.3529 28.4277C15.5462 28.621 15.5462 28.941 15.3529 29.1343C15.2529 29.2277 15.1262 29.281 14.9995 29.281Z" fill="#404040"/>
<path d="M30.0043 29V18.8182H31.8487V23.4964H31.973L35.9453 18.8182H38.1974L34.2599 23.3871L38.2322 29H36.0149L32.9773 24.6349L31.8487 25.9673V29H30.0043ZM42.2195 29.1491C41.4538 29.1491 40.7926 28.9901 40.2358 28.6719C39.6823 28.3504 39.2564 27.8963 38.9581 27.3097C38.6598 26.7197 38.5107 26.0253 38.5107 25.2266C38.5107 24.4411 38.6598 23.7517 38.9581 23.1584C39.2597 22.5618 39.6806 22.0978 40.2209 21.7663C40.7611 21.4316 41.3958 21.2642 42.125 21.2642C42.5956 21.2642 43.0398 21.3404 43.4574 21.4929C43.8783 21.642 44.2495 21.8741 44.571 22.1889C44.8958 22.5038 45.151 22.9048 45.3366 23.392C45.5223 23.8759 45.6151 24.4527 45.6151 25.1222V25.674H39.3558V24.4609H43.8899C43.8866 24.1162 43.812 23.8097 43.6662 23.5412C43.5204 23.2694 43.3165 23.0556 43.0547 22.8999C42.7962 22.7441 42.4946 22.6662 42.1499 22.6662C41.782 22.6662 41.4588 22.7557 41.1804 22.9347C40.902 23.1103 40.6849 23.3423 40.5291 23.6307C40.3767 23.9157 40.2988 24.2289 40.2955 24.5703V25.6293C40.2955 26.0734 40.3767 26.4545 40.5391 26.7727C40.7015 27.0876 40.9285 27.3295 41.2202 27.4986C41.5118 27.6643 41.8532 27.7472 42.2443 27.7472C42.5062 27.7472 42.7431 27.7107 42.9553 27.6378C43.1674 27.5616 43.3513 27.4505 43.5071 27.3047C43.6629 27.1589 43.7805 26.9782 43.8601 26.7628L45.5405 26.9517C45.4344 27.3958 45.2322 27.7836 44.9339 28.1151C44.639 28.4432 44.2611 28.6984 43.8004 28.8807C43.3397 29.0597 42.8127 29.1491 42.2195 29.1491ZM47.1376 29V21.3636H48.8578V22.6612H48.9473C49.1064 22.2237 49.3699 21.8823 49.7377 21.6371C50.1056 21.3885 50.5448 21.2642 51.0552 21.2642C51.5723 21.2642 52.0081 21.3902 52.3627 21.642C52.7207 21.8906 52.9726 22.2304 53.1184 22.6612H53.198C53.367 22.237 53.652 21.8989 54.0531 21.647C54.4574 21.3918 54.9364 21.2642 55.4899 21.2642C56.1925 21.2642 56.7659 21.4863 57.21 21.9304C57.6542 22.3745 57.8762 23.0225 57.8762 23.8743V29H56.0716V24.1527C56.0716 23.6787 55.9456 23.3324 55.6937 23.1136C55.4418 22.8916 55.1336 22.7805 54.769 22.7805C54.3348 22.7805 53.9951 22.9164 53.7498 23.1882C53.5079 23.4567 53.3869 23.8063 53.3869 24.2372V29H51.622V24.0781C51.622 23.6837 51.5027 23.3688 51.264 23.1335C51.0287 22.8982 50.7205 22.7805 50.3393 22.7805C50.0808 22.7805 49.8455 22.8468 49.6333 22.9794C49.4212 23.1087 49.2522 23.2926 49.1262 23.5312C49.0003 23.7666 48.9373 24.0417 48.9373 24.3565V29H47.1376ZM59.7816 29V18.8182H61.5813V22.6264H61.6559C61.7487 22.4408 61.8796 22.2436 62.0487 22.0348C62.2177 21.8227 62.4464 21.642 62.7347 21.4929C63.0231 21.3404 63.391 21.2642 63.8384 21.2642C64.4284 21.2642 64.9603 21.415 65.4343 21.7166C65.9116 22.0149 66.2894 22.4574 66.5678 23.044C66.8496 23.6274 66.9904 24.3433 66.9904 25.1918C66.9904 26.0303 66.8529 26.7429 66.5778 27.3295C66.3027 27.9162 65.9281 28.3636 65.4542 28.6719C64.9802 28.9801 64.4433 29.1342 63.8434 29.1342C63.4059 29.1342 63.043 29.0613 62.7546 28.9155C62.4663 28.7696 62.2343 28.594 62.0586 28.3885C61.8862 28.1797 61.752 27.9825 61.6559 27.7969H61.5515V29H59.7816ZM61.5465 25.1818C61.5465 25.6757 61.6161 26.1082 61.7553 26.4794C61.8978 26.8506 62.1017 27.1406 62.3668 27.3494C62.6353 27.5549 62.9601 27.6577 63.3413 27.6577C63.739 27.6577 64.0721 27.5516 64.3406 27.3395C64.609 27.1241 64.8112 26.8307 64.9471 26.4595C65.0863 26.085 65.1559 25.6591 65.1559 25.1818C65.1559 24.7079 65.088 24.2869 64.9521 23.919C64.8162 23.5511 64.614 23.2628 64.3455 23.054C64.0771 22.8452 63.7423 22.7408 63.3413 22.7408C62.9568 22.7408 62.6303 22.8419 62.3619 23.044C62.0934 23.2462 61.8896 23.5296 61.7504 23.8942C61.6145 24.2588 61.5465 24.688 61.5465 25.1818ZM70.7179 29.1541C70.234 29.1541 69.7981 29.0679 69.4103 28.8956C69.0259 28.7199 68.7209 28.4614 68.4956 28.12C68.2735 27.7786 68.1625 27.3577 68.1625 26.8572C68.1625 26.4264 68.242 26.0701 68.4011 25.7884C68.5602 25.5066 68.7773 25.2812 69.0524 25.1122C69.3275 24.9432 69.6374 24.8156 69.9821 24.7294C70.3301 24.6399 70.6897 24.5753 71.0609 24.5355C71.5083 24.4891 71.8713 24.4477 72.1497 24.4112C72.4281 24.3714 72.6303 24.3118 72.7562 24.2322C72.8855 24.1494 72.9501 24.0218 72.9501 23.8494V23.8196C72.9501 23.4451 72.8391 23.1551 72.617 22.9496C72.3949 22.7441 72.0751 22.6413 71.6575 22.6413C71.2167 22.6413 70.867 22.7375 70.6085 22.9297C70.3533 23.1219 70.1809 23.349 70.0914 23.6108L68.411 23.3722C68.5436 22.9081 68.7624 22.5204 69.0673 22.2088C69.3722 21.8939 69.7451 21.6586 70.1859 21.5028C70.6267 21.3438 71.1139 21.2642 71.6475 21.2642C72.0154 21.2642 72.3817 21.3073 72.7463 21.3935C73.1109 21.4796 73.444 21.6222 73.7456 21.821C74.0472 22.0166 74.2891 22.2834 74.4714 22.6214C74.657 22.9595 74.7498 23.3821 74.7498 23.8892V29H73.0197V27.951H72.96C72.8507 28.1631 72.6966 28.362 72.4977 28.5476C72.3021 28.7299 72.0552 28.8774 71.7569 28.9901C71.4619 29.0994 71.1156 29.1541 70.7179 29.1541ZM71.1852 27.8317C71.5465 27.8317 71.8597 27.7604 72.1248 27.6179C72.39 27.4721 72.5938 27.2798 72.7363 27.0412C72.8822 26.8026 72.9551 26.5424 72.9551 26.2607V25.3608C72.8987 25.4072 72.8026 25.4503 72.6667 25.4901C72.5342 25.5298 72.385 25.5646 72.2193 25.5945C72.0536 25.6243 71.8895 25.6508 71.7271 25.674C71.5647 25.6972 71.4238 25.7171 71.3045 25.7337C71.036 25.7701 70.7958 25.8298 70.5836 25.9126C70.3715 25.9955 70.2041 26.1115 70.0815 26.2607C69.9589 26.4065 69.8975 26.5954 69.8975 26.8274C69.8975 27.1589 70.0185 27.4091 70.2605 27.5781C70.5024 27.7472 70.8107 27.8317 71.1852 27.8317ZM78.3592 18.8182V29H76.5595V18.8182H78.3592ZM80.2099 29V21.3636H82.0096V29H80.2099ZM81.1147 20.2798C80.8297 20.2798 80.5844 20.1854 80.3789 19.9964C80.1734 19.8042 80.0707 19.5739 80.0707 19.3054C80.0707 19.0336 80.1734 18.8033 80.3789 18.6143C80.5844 18.4221 80.8297 18.326 81.1147 18.326C81.4031 18.326 81.6483 18.4221 81.8505 18.6143C82.056 18.8033 82.1587 19.0336 82.1587 19.3054C82.1587 19.5739 82.056 19.8042 81.8505 19.9964C81.6483 20.1854 81.4031 20.2798 81.1147 20.2798Z" fill="black"/>
</svg>
