<svg width="80" height="40" viewBox="0 0 80 40" fill="none" xmlns="http://www.w3.org/2000/svg">
<rect width="80" height="40" rx="5" fill="#009B4C"/>
<path d="M25.1614 24V15.2727H28.4341C29.1046 15.2727 29.6671 15.3892 30.1216 15.6222C30.579 15.8551 30.9242 16.1818 31.1572 16.6023C31.3929 17.0199 31.5108 17.5071 31.5108 18.0639C31.5108 18.6236 31.3915 19.1094 31.1529 19.5213C30.9171 19.9304 30.5691 20.2472 30.1089 20.4716C29.6486 20.6932 29.0833 20.804 28.4128 20.804H26.0819V19.4915H28.1998C28.5918 19.4915 28.9128 19.4375 29.1628 19.3295C29.4128 19.2187 29.5975 19.0582 29.7168 18.848C29.839 18.6349 29.9 18.3736 29.9 18.0639C29.9 17.7543 29.839 17.4901 29.7168 17.2713C29.5947 17.0497 29.4086 16.8821 29.1586 16.7685C28.9086 16.652 28.5861 16.5938 28.1912 16.5938H26.7424V24H25.1614ZM29.6699 20.0455L31.8304 24H30.0662L27.9441 20.0455H29.6699ZM35.4598 24.1278C34.8035 24.1278 34.2368 23.9915 33.7595 23.7188C33.2851 23.4432 32.92 23.054 32.6643 22.5511C32.4087 22.0455 32.2808 21.4503 32.2808 20.7656C32.2808 20.0923 32.4087 19.5014 32.6643 18.9929C32.9229 18.4815 33.2837 18.0838 33.7467 17.7997C34.2098 17.5128 34.7538 17.3693 35.3788 17.3693C35.7822 17.3693 36.1629 17.4347 36.5209 17.5653C36.8817 17.6932 37.1998 17.892 37.4754 18.1619C37.7538 18.4318 37.9726 18.7756 38.1317 19.1932C38.2908 19.608 38.3703 20.1023 38.3703 20.6761V21.1491H33.0052V20.1094H36.8916C36.8888 19.8139 36.8248 19.5511 36.6998 19.321C36.5748 19.0881 36.4001 18.9048 36.1757 18.7713C35.9541 18.6378 35.6956 18.571 35.4001 18.571C35.0848 18.571 34.8078 18.6477 34.5692 18.8011C34.3305 18.9517 34.1444 19.1506 34.0109 19.3977C33.8802 19.642 33.8135 19.9105 33.8106 20.2031V21.1108C33.8106 21.4915 33.8802 21.8182 34.0194 22.0909C34.1587 22.3608 34.3533 22.5682 34.6033 22.7131C34.8533 22.8551 35.1459 22.9261 35.4811 22.9261C35.7055 22.9261 35.9087 22.8949 36.0905 22.8324C36.2723 22.767 36.43 22.6719 36.5635 22.5469C36.697 22.4219 36.7979 22.267 36.866 22.0824L38.3064 22.2443C38.2155 22.625 38.0422 22.9574 37.7865 23.2415C37.5337 23.5227 37.2098 23.7415 36.8149 23.8977C36.42 24.0511 35.9683 24.1278 35.4598 24.1278ZM39.4332 26.4545V17.4545H40.9503V18.5369H41.0398C41.1193 18.3778 41.2315 18.2088 41.3764 18.0298C41.5213 17.848 41.7173 17.6932 41.9645 17.5653C42.2116 17.4347 42.527 17.3693 42.9105 17.3693C43.4162 17.3693 43.8722 17.4986 44.2784 17.7571C44.6875 18.0128 45.0114 18.392 45.25 18.8949C45.4915 19.3949 45.6122 20.0085 45.6122 20.7358C45.6122 21.4545 45.4943 22.0653 45.2585 22.5682C45.0227 23.071 44.7017 23.4545 44.2955 23.7188C43.8892 23.983 43.429 24.1151 42.9148 24.1151C42.5398 24.1151 42.2287 24.0526 41.9815 23.9276C41.7344 23.8026 41.5355 23.652 41.3849 23.4759C41.2372 23.2969 41.1222 23.1278 41.0398 22.9688H40.9759V26.4545H39.4332ZM40.946 20.7273C40.946 21.1506 41.0057 21.5213 41.125 21.8395C41.2472 22.1577 41.4219 22.4062 41.6491 22.5852C41.8793 22.7614 42.1577 22.8494 42.4844 22.8494C42.8253 22.8494 43.1108 22.7585 43.3409 22.5767C43.571 22.392 43.7443 22.1406 43.8608 21.8224C43.9801 21.5014 44.0398 21.1364 44.0398 20.7273C44.0398 20.321 43.9815 19.9602 43.8651 19.6449C43.7486 19.3295 43.5753 19.0824 43.3452 18.9034C43.1151 18.7244 42.8281 18.6349 42.4844 18.6349C42.1548 18.6349 41.875 18.7216 41.6449 18.8949C41.4148 19.0682 41.2401 19.3111 41.1207 19.6236C41.0043 19.9361 40.946 20.304 40.946 20.7273ZM48.2337 15.2727V24H46.6911V15.2727H48.2337ZM50.5367 26.4545C50.3265 26.4545 50.1319 26.4375 49.9529 26.4034C49.7768 26.3722 49.6362 26.3352 49.5311 26.2926L49.889 25.0909C50.1134 25.1563 50.3137 25.1875 50.4899 25.1847C50.666 25.1818 50.8208 25.1264 50.9544 25.0185C51.0907 24.9134 51.2058 24.7372 51.2995 24.4901L51.4316 24.1364L49.058 17.4545H50.6944L52.2029 22.3977H52.2711L53.7839 17.4545H55.4245L52.8038 24.7926C52.6816 25.1392 52.5197 25.4361 52.318 25.6832C52.1163 25.9332 51.8691 26.1236 51.5765 26.2543C51.2867 26.3878 50.9401 26.4545 50.5367 26.4545Z" fill="white"/>
</svg>
