<svg width="16" height="16" viewBox="0 0 16 16" fill="none" xmlns="http://www.w3.org/2000/svg">
<path d="M13.9985 4.48828C13.9851 4.48828 13.9651 4.48828 13.9451 4.48828C10.4185 4.13494 6.89848 4.00161 3.41181 4.35495L2.05181 4.48828C1.77181 4.51494 1.52515 4.31495 1.49848 4.03495C1.47181 3.75495 1.67181 3.51494 1.94515 3.48828L3.30515 3.35495C6.85181 2.99495 10.4451 3.13494 14.0451 3.48828C14.3185 3.51494 14.5185 3.76161 14.4918 4.03495C14.4718 4.29495 14.2518 4.48828 13.9985 4.48828Z" fill="#404040"/>
<path d="M5.66846 3.81203C5.6418 3.81203 5.61513 3.81203 5.5818 3.80536C5.31513 3.7587 5.12846 3.4987 5.17513 3.23203L5.3218 2.3587C5.42846 1.7187 5.57513 0.832031 7.12846 0.832031H8.87513C10.4351 0.832031 10.5818 1.75203 10.6818 2.36536L10.8285 3.23203C10.8751 3.50536 10.6885 3.76536 10.4218 3.80536C10.1485 3.85203 9.88846 3.66536 9.84846 3.3987L9.7018 2.53203C9.60846 1.95203 9.58846 1.8387 8.8818 1.8387H7.13513C6.42846 1.8387 6.41513 1.93203 6.31513 2.52536L6.1618 3.39203C6.1218 3.6387 5.90846 3.81203 5.66846 3.81203Z" fill="#404040"/>
<path d="M10.1416 15.1677H5.86156C3.53489 15.1677 3.44156 13.881 3.36823 12.841L2.93489 6.12769C2.91489 5.85436 3.12823 5.61436 3.40156 5.59436C3.68156 5.58103 3.91489 5.78769 3.93489 6.06103L4.36823 12.7744C4.44156 13.7877 4.46823 14.1677 5.86156 14.1677H10.1416C11.5416 14.1677 11.5682 13.7877 11.6349 12.7744L12.0682 6.06103C12.0882 5.78769 12.3282 5.58103 12.6016 5.59436C12.8749 5.61436 13.0882 5.84769 13.0682 6.12769L12.6349 12.841C12.5616 13.881 12.4682 15.1677 10.1416 15.1677Z" fill="#404040"/>
<path d="M9.10672 11.5H6.88672C6.61339 11.5 6.38672 11.2733 6.38672 11C6.38672 10.7267 6.61339 10.5 6.88672 10.5H9.10672C9.38005 10.5 9.60672 10.7267 9.60672 11C9.60672 11.2733 9.38005 11.5 9.10672 11.5Z" fill="#404040"/>
<path d="M9.66536 8.83203H6.33203C6.0587 8.83203 5.83203 8.60536 5.83203 8.33203C5.83203 8.0587 6.0587 7.83203 6.33203 7.83203H9.66536C9.9387 7.83203 10.1654 8.0587 10.1654 8.33203C10.1654 8.60536 9.9387 8.83203 9.66536 8.83203Z" fill="#404040"/>
</svg>
