<svg width="24" height="24" viewBox="0 0 24 24" fill="none" xmlns="http://www.w3.org/2000/svg">
<path opacity="0.4" d="M20.8319 8.01002L14.2819 2.77002C13.0019 1.75002 11.0019 1.74002 9.73192 2.76002L3.18192 8.01002C2.24192 8.76002 1.67192 10.26 1.87192 11.44L3.13192 18.98C3.42192 20.67 4.99192 22 6.70192 22H17.3019C18.9919 22 20.5919 20.64 20.8819 18.97L22.1419 11.43C22.3219 10.26 21.7519 8.76002 20.8319 8.01002Z" fill="white"/>
<path d="M12 18.75C11.59 18.75 11.25 18.41 11.25 18V15C11.25 14.59 11.59 14.25 12 14.25C12.41 14.25 12.75 14.59 12.75 15V18C12.75 18.41 12.41 18.75 12 18.75Z" fill="white"/>
</svg>
