<svg width="318" height="205" viewBox="0 0 318 205" fill="none" xmlns="http://www.w3.org/2000/svg">
<path d="M317.782 187.798C317.782 193.178 316.065 197.299 312.631 200.161C309.311 203.023 304.217 204.454 297.349 204.454V194.151C298.837 192.434 300.211 190.545 301.47 188.485L300.44 187.798C293.113 198.902 283.269 204.454 270.906 204.454C265.068 204.454 259.802 203.137 255.109 200.504C250.53 197.757 246.867 193.979 244.119 189.172C241.486 184.364 240.17 178.926 240.17 172.859V120.905C240.17 116.212 241.887 112.892 245.321 110.946C248.87 108.886 254.25 107.855 261.462 107.855V171.314C261.462 175.778 262.835 179.327 265.583 181.96C268.33 184.593 272.279 185.909 277.431 185.909C283.154 185.909 287.733 184.135 291.167 180.586C294.716 176.923 296.49 172.401 296.49 167.021V134.691C296.49 129.998 298.207 126.678 301.642 124.732C305.076 122.671 310.456 121.641 317.782 121.641V187.798Z" fill="#0EB253"/>
<path d="M211.408 204.452C202.135 204.452 195.267 201.762 190.803 196.381C186.338 191.001 184.106 184.076 184.106 175.605V133.021H166.42C166.42 127.641 167.45 123.634 169.511 121.001C171.571 118.368 174.319 117.052 177.753 117.052H184.449V105.571C184.449 100.878 186.166 97.5583 189.601 95.6122C193.035 93.5517 198.243 92.5215 205.226 92.5215V117.052H228.063C228.063 122.776 226.976 126.897 224.801 129.415C222.626 131.819 219.135 133.021 214.327 133.021H205.57V174.746C205.57 178.753 206.314 181.614 207.802 183.331C209.404 185.049 212.094 185.907 215.872 185.907C219.879 185.907 223.885 184.82 227.892 182.645C229.036 183.675 229.952 184.991 230.639 186.594C231.326 188.082 231.669 189.627 231.669 191.23C231.669 194.664 229.895 197.755 226.346 200.502C222.798 203.135 217.818 204.452 211.408 204.452Z" fill="#0EB253"/>
<path d="M119.99 204.457C114.152 204.457 108.772 203.312 103.85 201.023C99.0419 198.733 95.1499 195.471 92.1736 191.235C89.3118 186.885 87.8809 181.734 87.8809 175.781C87.8809 169.829 89.4262 164.678 92.517 160.328C95.6078 155.863 99.786 152.486 105.052 150.197C110.432 147.793 116.327 146.591 122.738 146.591C128.003 146.591 132.697 147.45 136.818 149.167C141.053 150.769 144.945 153.23 148.494 156.55L149.353 155.692C148.322 154.661 146.548 153.116 144.03 151.055V147.621C144.03 142.928 142.37 139.208 139.05 136.46C135.73 133.713 131.094 132.339 125.142 132.339C114.496 132.339 106.654 136.231 101.618 144.015C99.0992 143.214 96.9814 141.955 95.2644 140.238C93.5473 138.406 92.6887 136.46 92.6887 134.4C92.6887 130.966 94.2341 127.818 97.3248 124.956C100.416 122.094 104.594 119.804 109.86 118.087C115.125 116.37 120.849 115.512 127.03 115.512C139.165 115.512 148.551 118.374 155.191 124.097C161.83 129.706 165.15 137.376 165.15 147.106V190.033C165.15 195.07 163.547 198.733 160.342 201.023C157.137 203.312 152.1 204.457 145.232 204.457V197.417C147.178 195.471 148.494 194.04 149.181 193.124L148.494 192.266C144.716 196.272 140.653 199.306 136.303 201.366C132.067 203.427 126.63 204.457 119.99 204.457ZM125.485 188.831C131.438 188.831 136.074 187.687 139.393 185.397C142.713 183.108 144.373 179.845 144.373 175.61C144.373 171.489 142.656 168.226 139.222 165.822C135.902 163.418 131.38 162.217 125.657 162.217C120.391 162.217 116.213 163.418 113.122 165.822C110.146 168.112 108.658 171.374 108.658 175.61C108.658 179.96 110.146 183.279 113.122 185.569C116.098 187.744 120.219 188.831 125.485 188.831Z" fill="#0EB253"/>
<path d="M0.537109 95.5876C0.537109 91.0087 2.31143 87.4601 5.86008 84.9417C9.5232 82.4233 14.9606 81.1641 22.1724 81.1641V121C20.5698 122.26 19.3106 123.404 18.3948 124.435L19.0816 125.293C22.1724 122.317 26.179 119.97 31.1013 118.253C36.1381 116.422 40.7742 115.506 45.0097 115.506C55.1977 115.506 63.3253 118.368 69.3923 124.091C75.4594 129.7 78.4929 137.084 78.4929 146.242V173.543C78.4929 179.496 77.0048 184.819 74.0285 189.512C71.0522 194.206 67.0457 197.869 62.0089 200.502C56.9721 203.135 51.5918 204.451 45.8682 204.451C39.8012 204.451 34.4782 203.249 29.8993 200.845C25.4349 198.327 21.3711 194.664 17.708 189.856L17.0212 190.543C17.479 191.344 18.0514 192.145 18.7382 192.946C19.4251 193.748 19.9402 194.377 20.2836 194.835C20.2836 198.04 18.7382 200.444 15.6475 202.047C12.5567 203.65 7.51993 204.451 0.537109 204.451V95.5876ZM39.515 185.906C45.2386 185.906 49.5886 184.762 52.5649 182.472C55.6556 180.068 57.201 176.577 57.201 171.998V147.615C57.201 143.265 55.6556 139.946 52.5649 137.656C49.4741 135.252 45.1241 134.05 39.515 134.05C34.4782 134.05 30.2427 135.31 26.8086 137.828C23.4889 140.346 21.829 143.38 21.829 146.929V172.857C21.829 176.634 23.4889 179.782 26.8086 182.301C30.1283 184.704 34.3637 185.906 39.515 185.906Z" fill="#0EB253"/>
<path d="M168.491 83.5467C168.491 88.9269 166.774 93.0479 163.34 95.9097C160.02 98.7715 154.926 100.202 148.058 100.202V80.7012C149.546 78.9841 150.92 77.0953 152.179 75.0348L151.149 74.348C143.822 85.4518 133.978 91.0037 121.615 91.0037C115.777 91.0037 110.511 89.6873 105.818 87.0544C101.239 84.3071 97.5756 80.5295 94.8282 75.7217C92.1953 70.9138 90.8789 65.4764 90.8789 59.4093V15.1085C90.8789 10.4151 92.596 7.09538 96.0302 5.14935C99.5788 3.08885 104.959 2.05859 112.171 2.05859V57.8639C112.171 62.3284 113.544 65.877 116.292 68.5099C119.039 71.1428 122.988 72.4592 128.14 72.4592C133.863 72.4592 138.442 70.6849 141.876 67.1362C145.425 63.4731 147.199 58.9514 147.199 53.5712V15.1085C147.199 10.4151 148.916 7.09538 152.351 5.14935C155.785 3.08885 161.165 2.05859 168.491 2.05859V83.5467Z" fill="#0EB253"/>
<path d="M1.47461 18.5426C1.47461 13.2769 3.13446 9.21313 6.45416 6.35132C9.88834 3.48951 15.0396 2.05859 21.908 2.05859V12.3611C20.5343 13.9637 19.1606 15.7953 17.7869 17.8558L18.8172 18.5426C22.2514 13.3914 26.6586 9.38483 32.0388 6.52303C37.419 3.54674 43.3715 2.05859 49.8965 2.05859C55.7346 2.05859 60.8858 3.37503 65.3503 6.00789C69.8147 8.64076 73.2489 12.2466 75.6528 16.8256C78.1712 21.4045 79.4304 26.5557 79.4304 32.2793V87.1525C79.4304 91.7315 77.6561 95.0511 74.1074 97.1116C70.5588 99.1722 65.1786 100.202 57.9668 100.202V35.3701C57.9668 31.0201 56.6504 27.4715 54.0175 24.7242C51.4991 21.9768 47.7787 20.6031 42.8564 20.6031C37.0183 20.6031 32.2105 22.4347 28.4329 26.0978C24.6553 29.6465 22.7665 34.1109 22.7665 39.4911V62.6227C22.7665 67.2016 21.0494 70.5213 17.6152 72.5818C14.1811 74.6423 8.80085 75.6726 1.47461 75.6726V18.5426Z" fill="#0EB253"/>
<path d="M205.98 37.3328C205.98 17.0116 222.454 0.538086 242.775 0.538086H316.365V55.7302C316.365 76.0514 299.891 92.5249 279.57 92.5249H205.98V37.3328Z" fill="#FFD600"/>
<path d="M271.729 67.7561C269.455 67.7561 267.395 67.1713 265.55 66.0018C263.718 64.8194 262.263 63.0846 261.184 60.7977C260.119 58.4977 259.586 55.6779 259.586 52.3384C259.586 48.908 260.138 46.0557 261.243 43.7818C262.347 41.4948 263.816 39.786 265.648 38.6555C267.493 37.5121 269.514 36.9403 271.71 36.9403C273.386 36.9403 274.783 37.2262 275.9 37.7979C277.031 38.3567 277.94 39.0584 278.629 39.903C279.331 40.7346 279.863 41.5532 280.227 42.3589H280.481V27.3506H288.764V67.2688H280.578V62.4739H280.227C279.837 63.3055 279.285 64.1307 278.57 64.9493C277.869 65.7549 276.953 66.4241 275.822 66.9569C274.705 67.4897 273.34 67.7561 271.729 67.7561ZM274.36 61.1485C275.699 61.1485 276.829 60.7847 277.752 60.057C278.687 59.3163 279.402 58.2833 279.896 56.9579C280.403 55.6325 280.656 54.0797 280.656 52.2994C280.656 50.5192 280.409 48.9729 279.915 47.6605C279.422 46.3481 278.707 45.3346 277.771 44.6199C276.836 43.9052 275.699 43.5479 274.36 43.5479C272.996 43.5479 271.846 43.9182 270.91 44.6589C269.975 45.3995 269.267 46.4261 268.786 47.7385C268.305 49.0509 268.065 50.5712 268.065 52.2994C268.065 54.0407 268.305 55.5805 268.786 56.9189C269.28 58.2443 269.988 59.2838 270.91 60.0375C271.846 60.7782 272.996 61.1485 274.36 61.1485Z" fill="black"/>
<path d="M246.22 67.269V37.3303H254.523V67.269H246.22ZM250.391 33.4711C249.157 33.4711 248.098 33.0617 247.214 32.2431C246.344 31.4115 245.908 30.4174 245.908 29.2609C245.908 28.1175 246.344 27.1364 247.214 26.3178C248.098 25.4861 249.157 25.0703 250.391 25.0703C251.626 25.0703 252.678 25.4861 253.549 26.3178C254.432 27.1364 254.874 28.1175 254.874 29.2609C254.874 30.4174 254.432 31.4115 253.549 32.2431C252.678 33.0617 251.626 33.4711 250.391 33.4711Z" fill="black"/>
<path d="M235.188 67.7748C233.901 67.7748 232.797 67.32 231.874 66.4105C230.965 65.4879 230.51 64.3834 230.51 63.0969C230.51 61.8235 230.965 60.732 231.874 59.8224C232.797 58.9128 233.901 58.458 235.188 58.458C236.435 58.458 237.527 58.9128 238.462 59.8224C239.398 60.732 239.866 61.8235 239.866 63.0969C239.866 63.9546 239.645 64.7407 239.203 65.4554C238.774 66.1571 238.209 66.7223 237.507 67.1511C236.805 67.5669 236.032 67.7748 235.188 67.7748Z" fill="black"/>
</svg>
