<svg width="137" height="67" viewBox="0 0 137 67" fill="none" xmlns="http://www.w3.org/2000/svg">
<path fill-rule="evenodd" clip-rule="evenodd" d="M61.4206 56.1168H63.5266L60.5431 52.1748L63.0676 48.7188H61.0831L58.6261 52.3773V45.9648H56.8711V56.1168H58.6261V54.4833L59.3956 53.3898L61.4206 56.1168ZM68.5678 51.9318V52.6338C68.5678 53.1738 68.4868 53.6328 68.3248 54.0108C68.1268 54.4878 67.7083 54.7263 67.0693 54.7263C66.0793 54.7263 65.5843 54.0108 65.5843 52.5798V51.8778C65.5843 50.5458 66.0793 49.8798 67.0693 49.8798C67.6813 49.8798 68.0818 50.0553 68.2708 50.4063C68.4688 50.7573 68.5678 51.2658 68.5678 51.9318ZM69.3778 55.5768C70.0078 55.0098 70.3228 53.8938 70.3228 52.2288C70.3228 50.9328 70.0798 49.9563 69.5938 49.2993C69.1168 48.6333 68.2573 48.3003 67.0153 48.3003C65.7823 48.3003 64.9318 48.6783 64.4638 49.4343C64.0408 50.1093 63.8293 51.0408 63.8293 52.2288C63.8293 53.4978 64.0408 54.4788 64.4638 55.1718C64.9138 55.9278 65.7823 56.3058 67.0693 56.3058C68.0773 56.3058 68.8468 56.0628 69.3778 55.5768ZM74.9775 56.1168H73.884C73.218 56.1168 72.7095 55.9188 72.3585 55.5228C72.0165 55.1268 71.8455 54.6543 71.8455 54.1053V50.0553H71.103V48.7188H71.8455V47.2068H73.6005V48.7188H74.8425V50.0553H73.6005V53.9973C73.6005 54.4203 73.803 54.6318 74.208 54.6318H74.9775V56.1168ZM80.5177 56.1168H81.6922V48.3543L79.9372 48.4623H78.0877C77.4397 48.4623 76.9132 48.6018 76.5082 48.8808C76.3282 49.0068 76.1752 49.1778 76.0492 49.3938C75.9232 49.6008 75.8242 49.8033 75.7522 50.0013C75.6892 50.1993 75.6397 50.4468 75.6037 50.7438C75.5677 51.0318 75.5452 51.2883 75.5362 51.5133C75.5272 51.7293 75.5227 52.0713 75.5227 52.5393C75.5227 52.9983 75.5542 53.4438 75.6172 53.8758C75.6892 54.2988 75.8152 54.6948 75.9952 55.0638C76.3552 55.8198 77.0572 56.1978 78.1012 56.1978L79.9777 55.1853L80.5177 56.1168ZM79.9372 50.0418V53.6598L78.6007 54.3483C78.0877 54.3483 77.7367 54.1953 77.5477 53.8893C77.3677 53.5833 77.2777 53.0568 77.2777 52.3098C77.2777 51.5538 77.3722 50.9868 77.5612 50.6088C77.7592 50.2308 78.1057 50.0418 78.6007 50.0418H79.9372ZM102.667 56.1168L104.192 56.1303C105.992 56.1303 106.892 54.8388 106.892 52.2558C106.892 51.7248 106.879 51.2793 106.852 50.9193C106.771 50.0553 106.564 49.4298 106.231 49.0428C105.853 48.6108 105.263 48.3948 104.462 48.3948L102.37 49.3668V45.9648H100.615V54.1053C100.615 54.6543 100.786 55.1268 101.128 55.5228C101.479 55.9188 101.992 56.1168 102.667 56.1168ZM103.679 54.6183H102.815C102.518 54.5643 102.37 54.3573 102.37 53.9973V50.9598L103.949 50.1093C104.444 50.1093 104.764 50.2668 104.908 50.5818C105.061 50.8968 105.137 51.4548 105.137 52.2558C105.137 53.8308 104.651 54.6183 103.679 54.6183ZM112.54 56.1168H113.715V48.3543L111.96 48.4623H110.11C109.462 48.4623 108.936 48.6018 108.531 48.8808C108.351 49.0068 108.198 49.1778 108.072 49.3938C107.946 49.6008 107.847 49.8033 107.775 50.0013C107.712 50.1993 107.662 50.4468 107.626 50.7438C107.59 51.0318 107.568 51.2883 107.559 51.5133C107.55 51.7293 107.545 52.0713 107.545 52.5393C107.545 52.9983 107.577 53.4438 107.64 53.8758C107.712 54.2988 107.838 54.6948 108.018 55.0638C108.378 55.8198 109.08 56.1978 110.124 56.1978L112 55.1853L112.54 56.1168ZM111.96 50.0418V53.6598L110.623 54.3483C110.11 54.3483 109.759 54.1953 109.57 53.8893C109.39 53.5833 109.3 53.0568 109.3 52.3098C109.3 51.5538 109.395 50.9868 109.584 50.6088C109.782 50.2308 110.128 50.0418 110.623 50.0418H111.96ZM118.872 56.1168H117.779C117.113 56.1168 116.604 55.9188 116.253 55.5228C115.911 55.1268 115.74 54.6543 115.74 54.1053V50.0553H114.998V48.7188H115.74V47.2068H117.495V48.7188H118.737V50.0553H117.495V53.9973C117.495 54.4203 117.698 54.6318 118.103 54.6318H118.872V56.1168ZM124.736 56.1168H126.046V48.4083H124.291V53.6328L122.711 54.4833C122.027 54.4833 121.685 54.0558 121.685 53.2008V48.4083H119.93V53.5788C119.93 54.4338 120.151 55.0863 120.592 55.5363C121.042 55.9773 121.568 56.1978 122.171 56.1978L124.331 55.1988L124.736 56.1168Z" fill="white"/>
<path fill-rule="evenodd" clip-rule="evenodd" d="M63.912 31.6172L57.4458 31.4134C57.4085 32.5334 57.3338 33.392 57.2218 33.9894C57.1098 34.5494 56.8672 35.128 56.4938 35.7254C56.1578 36.3227 55.5792 36.752 54.7578 37.0134C53.9738 37.2374 52.9472 37.3494 51.6778 37.3494C50.4085 37.3494 49.3818 37.1067 48.5978 36.6214C46.8805 35.6134 46.0218 32.888 46.0218 28.4454V25.5334C46.0218 22.7707 46.3765 20.6987 47.0858 19.3174C47.8325 17.936 49.3072 17.2454 51.5098 17.2454C53.7498 17.2454 55.2805 17.656 56.1018 18.4774C56.9232 19.2614 57.3338 20.4747 57.3338 22.1174H63.9418C63.9418 18.5334 62.8965 15.7334 60.8058 13.7174C58.7152 11.7014 55.6538 10.6934 51.6218 10.6934C49.5685 10.6934 47.7018 11.0294 46.0218 11.7014C44.3418 12.3734 43.0165 13.232 42.0458 14.2774C39.8432 16.592 38.7418 20.9414 38.7418 27.3254C38.7418 33.672 39.8432 38.0027 42.0458 40.3174C43.0165 41.3627 44.3418 42.2214 46.0218 42.8934C47.7018 43.5654 49.5685 43.9014 51.6218 43.9014C53.7125 43.9014 55.7098 43.5654 57.6138 42.8934C60.4527 41.8288 62.2459 40.3932 62.9936 38.5865L69.3308 43.0599V43.1174H76.6108V20.6614L83.1628 17.9174C84.5068 17.9174 85.5521 18.2534 86.2988 18.9254C87.0455 19.5974 87.4188 20.848 87.4188 22.6774V55.6172H94.6988V21.6694C94.6988 18.1227 93.7655 15.4347 91.8988 13.6054C90.0695 11.7387 87.9041 10.8054 85.4028 10.8054L76.4428 14.9494L74.7628 11.1414H69.3308V35.3426L63.912 31.6172ZM29.096 39.4214C33.3893 37.1067 35.536 31.7867 35.536 23.4614C35.536 18.4214 34.98 17.0439 33.412 14.6172C31.844 12.1532 28.6667 11.3654 24.336 11.3654H10V55.6172H17.28V37.3494L22.656 40.8214C25.1947 40.8214 27.3413 40.3547 29.096 39.4214ZM22.208 17.9174C26.24 17.9174 28.256 18.272 28.256 24.5814C28.256 27.568 27.7893 29.752 26.856 31.1334C25.9227 32.4774 24.3733 33.1494 22.208 33.1494L17.28 29.9574V17.9174H22.208ZM120.23 43.1174H125.662V11.1414H118.382V32.8134L111.83 36.3414C108.993 36.3414 107.574 34.568 107.574 31.0214V11.1414H100.294V32.5894C100.294 36.136 101.209 38.8427 103.038 40.7094C104.905 42.5387 107.089 43.4534 109.59 43.4534L118.55 39.3094L120.23 43.1174Z" fill="url(#paint0_linear_765_1423)"/>
<defs>
<linearGradient id="paint0_linear_765_1423" x1="10" y1="-67.3066" x2="23.5" y2="66.1934" gradientUnits="userSpaceOnUse">
<stop stop-color="#00FF6F"/>
<stop offset="1" stop-color="#14A952"/>
</linearGradient>
</defs>
</svg>
