<svg width="24" height="8" viewBox="0 0 24 8" fill="none" xmlns="http://www.w3.org/2000/svg">
<g clip-path="url(#clip0_765_6123)">
<path d="M4.11074 5.81316C4.11074 5.53417 4.11378 4.78844 4.10689 4.69656C4.11289 3.5869 3.30504 2.80413 2.79467 2.86515C2.44152 2.89576 2.14555 3.03958 1.98663 3.4533C1.83934 3.83888 1.97103 4.35174 2.46073 4.47209C2.98436 4.60133 3.29013 4.70887 3.51141 4.86057C3.78255 5.04629 4.00389 5.40114 4.00977 5.8136" fill="#0060AF"/>
<path d="M4.32072 7.5C3.39743 7.5 2.44854 7.27288 1.50092 6.82369L1.47766 6.81227L1.46654 6.78861C1.04129 5.89211 0.816406 4.91157 0.816406 3.95223C0.816406 2.99434 1.03207 2.05576 1.45763 1.16047L1.46932 1.13668L1.49302 1.12481C2.36962 0.710081 3.31263 0.5 4.29671 0.5C5.21344 0.5 6.19246 0.733872 7.12751 1.17751L7.15153 1.18817L7.16258 1.21241C7.59599 2.12543 7.82454 3.10572 7.82454 4.04916C7.82454 4.98894 7.60508 5.92834 7.17118 6.84079L7.15974 6.86477L7.1356 6.87588C6.2724 7.28399 5.29893 7.5 4.32072 7.5ZM1.58862 6.70076C2.5092 7.13323 3.42731 7.35164 4.32072 7.35164C5.26803 7.35164 6.21016 7.14484 7.04878 6.75282C7.46538 5.86864 7.67655 4.95865 7.67655 4.04916C7.67655 3.13601 7.45615 2.18614 7.03924 1.3C6.1318 0.873968 5.18412 0.648047 4.29671 0.648047C3.34397 0.648047 2.43078 0.849861 1.58066 1.248C1.17259 2.11577 0.964897 3.02507 0.964897 3.95223C0.964897 4.88115 1.18075 5.83141 1.58862 6.70076Z" fill="#0060AF"/>
<path d="M3.89204 5.81365C3.89375 5.45603 3.69389 5.1398 3.43267 4.96986C3.20096 4.81967 2.88989 4.72097 2.38806 4.59387C2.23293 4.55424 2.07066 4.46621 2.02043 4.354C1.88755 4.48772 1.86341 4.78836 1.88679 4.96405C1.91396 5.16738 2.15186 5.50247 2.51007 5.5156C2.72883 5.52437 3.0054 5.46858 3.13803 5.44044C3.36683 5.39109 3.72883 5.53422 3.78646 5.81321" fill="#0060AF"/>
<path d="M4.29808 1.13574C3.69072 1.13574 3.16608 1.53577 3.16797 2.22798C3.16987 2.81008 3.63859 3.1217 3.80585 3.34427C4.0586 3.67968 4.1954 4.07668 4.20962 4.68415C4.22068 5.1676 4.22011 5.645 4.22257 5.81419H4.35666C4.35432 5.63718 4.34825 5.13037 4.3552 4.66919C4.3643 4.06154 4.50603 3.67968 4.75891 3.34427C4.92762 3.1217 5.39596 2.81008 5.39697 2.22798C5.39925 1.53577 4.87492 1.13574 4.26807 1.13574" fill="#0060AF"/>
<path d="M4.44996 5.81316C4.44996 5.53417 4.4468 4.78844 4.45356 4.69656C4.44762 3.5869 5.25497 2.80413 5.76577 2.86515C6.11893 2.89576 6.41458 3.03958 6.57394 3.4533C6.72111 3.83888 6.58866 4.35174 6.09953 4.47209C5.57564 4.60133 5.27026 4.70887 5.04841 4.86057C4.77758 5.04629 4.57172 5.40114 4.5654 5.8136" fill="#0060AF"/>
<path d="M4.66798 5.81365C4.66609 5.45603 4.86589 5.1398 5.12634 4.96986C5.359 4.81967 5.67045 4.72097 6.17185 4.59387C6.32729 4.55424 6.48936 4.46621 6.53871 4.354C6.67223 4.48772 6.6963 4.78836 6.67292 4.96405C6.64518 5.16738 6.40791 5.50247 6.05034 5.5156C5.83164 5.52437 5.55362 5.46858 5.42156 5.44044C5.19364 5.39109 4.83063 5.53422 4.77275 5.81321" fill="#0060AF"/>
<path d="M4.85897 6.96835L4.78125 6.40198L4.96885 6.37358C5.01454 6.36733 5.07014 6.37528 5.09239 6.40387C5.11697 6.43372 5.12448 6.4584 5.12922 6.49752C5.1363 6.54592 5.12227 6.6019 5.06768 6.62979V6.63149C5.12865 6.63149 5.16549 6.67522 5.17617 6.74906C5.17775 6.76464 5.18236 6.80232 5.17775 6.83374C5.16537 6.90852 5.12069 6.93257 5.04531 6.94311L4.85897 6.96835ZM4.97972 6.86694C5.00196 6.86377 5.02452 6.86259 5.04215 6.85135C5.06913 6.83375 5.06667 6.79607 5.06294 6.76812C5.05352 6.70665 5.03748 6.68331 4.9722 6.69296L4.93119 6.69927L4.95716 6.8701L4.97972 6.86694ZM4.94042 6.60524C4.96525 6.60122 4.99893 6.59824 5.01296 6.5747C5.02029 6.55899 5.0297 6.54649 5.02351 6.51153C5.01587 6.47007 5.00209 6.44438 4.94939 6.45435L4.9003 6.46224L4.91963 6.60739" fill="#0060AF"/>
<path d="M5.66975 6.62768C5.6712 6.63822 5.67291 6.64995 5.67354 6.66049C5.6887 6.7638 5.66975 6.84931 5.55348 6.87284C5.38161 6.90591 5.34869 6.79926 5.31842 6.64995L5.30231 6.56918C5.27862 6.4263 5.26844 6.31814 5.43602 6.28482C5.53048 6.26759 5.59291 6.30514 5.61888 6.39904C5.62292 6.41305 5.62798 6.42694 5.62987 6.44101L5.52707 6.46221C5.51519 6.42694 5.49946 6.36389 5.4532 6.36919C5.37017 6.37916 5.3976 6.48234 5.40613 6.52544L5.43703 6.6805C5.44631 6.72739 5.46477 6.80229 5.53661 6.78784C5.59493 6.77616 5.56953 6.68542 5.56435 6.64825" fill="#0060AF"/>
<path d="M5.83636 6.79912L5.80078 6.21299L5.93891 6.1709L6.2285 6.68067L6.11975 6.71317L6.05113 6.58362L5.93038 6.61984L5.94599 6.76713L5.83636 6.79912ZM5.92027 6.52518L6.00753 6.49994L5.89165 6.26278" fill="#0060AF"/>
<path d="M2.4235 6.356C2.46672 6.2178 2.50546 6.11607 2.67038 6.16126C2.75865 6.18587 2.81337 6.22474 2.81078 6.32716C2.81035 6.34994 2.80282 6.37316 2.79789 6.39569L2.69521 6.36736C2.70867 6.31082 2.7172 6.26595 2.64744 6.24449C2.56681 6.22241 2.54716 6.32003 2.53604 6.36218L2.49427 6.51585C2.481 6.56148 2.46508 6.63688 2.53604 6.65632C2.59468 6.6721 2.63025 6.61461 2.65148 6.53068L2.57964 6.51168L2.60447 6.42277L2.77337 6.47704L2.69319 6.7732L2.61547 6.75212L2.63297 6.68952H2.63076C2.59499 6.7407 2.55133 6.74606 2.5131 6.73874C2.3442 6.69311 2.36183 6.58287 2.40214 6.43558" fill="#0060AF"/>
<path d="M3.05208 6.60616L3.00121 6.8471L2.88672 6.82236L3.00873 6.25977L3.20392 6.30382C3.31816 6.32843 3.35266 6.37923 3.33649 6.4838C3.32726 6.54381 3.29763 6.60849 3.22528 6.60326L3.22452 6.60227C3.28569 6.62367 3.29087 6.65446 3.28019 6.70773C3.27558 6.73038 3.24379 6.86789 3.26572 6.8901L3.26648 6.90695L3.148 6.87609C3.14307 6.83798 3.15982 6.76944 3.16645 6.73151C3.17315 6.69794 3.18383 6.65061 3.1497 6.63282C3.12298 6.61862 3.11306 6.61931 3.08285 6.61237L3.05208 6.60616ZM3.07161 6.51901L3.14869 6.53977C3.19552 6.54652 3.22155 6.52229 3.23077 6.46581C3.23912 6.414 3.22831 6.39374 3.18629 6.38371L3.10364 6.36699" fill="#0060AF"/>
<path d="M3.78516 6.38507L3.89839 6.3982L3.84961 6.79368C3.82592 6.91907 3.77739 6.97391 3.63926 6.95675C3.49873 6.93901 3.46537 6.87509 3.4739 6.74869L3.52299 6.35352L3.63711 6.36658L3.58814 6.75291C3.58296 6.79488 3.57323 6.85704 3.64798 6.86455C3.71426 6.8696 3.7293 6.82574 3.73676 6.77122" fill="#0060AF"/>
<path d="M4.02344 6.97864L4.0575 6.41309L4.27505 6.42249C4.37786 6.42754 4.40477 6.5114 4.40155 6.59143C4.39858 6.64008 4.38335 6.69441 4.34089 6.72389C4.30608 6.74894 4.26134 6.75487 4.21982 6.75285L4.14893 6.74892L4.13477 6.98595L4.02344 6.97864ZM4.15215 6.66267L4.20978 6.66589C4.2566 6.66759 4.28762 6.6491 4.29167 6.58045C4.29394 6.5145 4.26898 6.50333 4.20832 6.50068L4.16264 6.49912" fill="#0060AF"/>
<path d="M19.3689 1.68249L18.5042 3.24985C18.1779 2.98519 17.7793 2.79038 17.2709 2.79038C16.0676 2.79038 15.5788 3.68617 15.5788 4.31717C15.5788 4.78555 15.8859 5.47662 16.9566 5.47662C17.406 5.47662 18.0448 5.16437 18.2287 5.02232L17.3735 6.84073C16.9659 6.92195 16.832 6.97231 16.487 6.98297C14.5707 7.04008 13.7963 5.86441 13.7969 4.66306C13.7981 3.07492 15.212 1.14349 17.5557 1.14349C17.6993 1.14349 17.875 1.1931 18.0252 1.24806L18.177 1.0542" fill="#0060AF"/>
<path d="M22.9366 1.10352L23.1814 6.80025H21.3592L21.3581 5.82323H20.1156L19.7067 6.80025H17.7305L19.7965 2.73229L19.3306 2.72926L20.2158 1.10352H22.9366ZM21.3463 2.84626L20.6438 4.50324H21.3675" fill="#0060AF"/>
<path d="M12.6472 1.10332C13.5496 1.10837 14.0596 1.59757 14.0596 2.30423C14.0596 2.95568 13.5218 3.53234 12.9314 3.83052C13.5392 4.05366 13.5918 4.60143 13.5918 4.98896C13.5918 5.92521 12.6511 6.80005 11.4284 6.80005H8.76172L9.80191 2.78876L9.37464 2.7863L10.2481 1.10332C10.2481 1.10332 11.9134 1.09827 12.6472 1.10332ZM11.7619 3.41301C11.9486 3.41301 12.2782 3.3658 12.3606 3.00502C12.4509 2.61339 12.1416 2.60285 11.9932 2.60285L11.463 2.60053L11.2782 3.41303L11.7619 3.41301ZM11.0124 4.41968L10.7683 5.35593H11.3925C11.6381 5.35593 11.9728 5.23419 12.0549 4.92952C12.1359 4.62396 11.9019 4.41968 11.6572 4.41968" fill="#0060AF"/>
</g>
<defs>
<clipPath id="clip0_765_6123">
<rect width="22.3642" height="7" fill="white" transform="translate(0.816406 0.5)"/>
</clipPath>
</defs>
</svg>
