<svg width="16" height="10" viewBox="0 0 16 10" fill="none" xmlns="http://www.w3.org/2000/svg">
<path d="M11.6133 2.78809V9.89171H13.2832V4.56742C13.2832 4.16992 13.0711 2.96885 11.6133 2.78809Z" fill="#00A39D"/>
<path d="M2.73368 8.65643C2.94585 8.65643 3.11976 8.62987 3.25397 8.57533C3.38819 8.52079 3.49413 8.45111 3.57037 8.36658C3.64662 8.28034 3.69802 8.18439 3.72772 8.07674C3.75599 7.96908 3.77084 7.85971 3.77084 7.74863C3.77084 7.62098 3.75428 7.50847 3.72115 7.40567C3.68803 7.30458 3.63006 7.21834 3.55038 7.14895C3.46928 7.07927 3.36306 7.02473 3.22913 6.98646C3.09663 6.94849 2.92757 6.93021 2.7254 6.93021H1.602V8.65643H2.73368ZM1.602 4.1437V5.85507H2.43869C2.61603 5.85507 2.77651 5.84193 2.91901 5.81709C3.0615 5.79225 3.1823 5.74742 3.28338 5.68459C3.38276 5.62177 3.459 5.53381 3.51212 5.42273C3.56523 5.31165 3.59008 5.17258 3.59008 5.00353C3.59008 4.8379 3.57009 4.70197 3.52868 4.5926C3.48728 4.48323 3.42445 4.39557 3.33821 4.32932C3.25197 4.26307 3.14432 4.21509 3.01182 4.18682C2.88103 4.15855 2.72368 4.1437 2.54292 4.1437H1.60057H1.602ZM2.54464 2.94092C3.02352 2.94092 3.43102 2.98575 3.76713 3.07342C4.10352 3.1628 4.37851 3.28702 4.5904 3.4495C4.80257 3.61199 4.9582 3.80731 5.05415 4.03919C5.1501 4.27106 5.20007 4.5295 5.20007 4.81449C5.20007 4.97012 5.17866 5.11918 5.13382 5.26339C5.08899 5.4076 5.0196 5.54181 4.92508 5.66774C4.83056 5.79368 4.70805 5.9079 4.55899 6.01242C4.40992 6.11665 4.23088 6.20803 4.02213 6.28398C4.47932 6.39507 4.81742 6.57383 5.03587 6.82084C5.25433 7.06785 5.36398 7.38911 5.36398 7.78175C5.36398 8.07674 5.30773 8.35173 5.19322 8.60503C5.07899 8.8586 4.91165 9.08049 4.6912 9.26781C4.47075 9.45657 4.19918 9.60421 3.87621 9.71015C3.55324 9.81609 3.18372 9.86921 2.76795 9.86921H0V2.94092H2.54949H2.54464Z" fill="#00A39D"/>
<path d="M10.1944 4.34754C10.1464 4.42378 10.0967 4.48004 10.0453 4.5183C9.99218 4.55628 9.92593 4.57456 9.84312 4.57456C9.7703 4.57456 9.69234 4.55143 9.60781 4.50488C9.52329 4.45862 9.42877 4.40722 9.32282 4.35068C9.21688 4.29442 9.0958 4.24131 8.95845 4.19648C8.82252 4.15021 8.66689 4.1268 8.49298 4.1268C8.19143 4.1268 7.96784 4.19134 7.82049 4.31898C7.67314 4.44663 7.59861 4.62053 7.59861 4.83927C7.59861 4.97834 7.64344 5.09428 7.73111 5.18709C7.82049 5.27989 7.93642 5.35785 8.08063 5.42553C8.22484 5.49178 8.39047 5.55318 8.57608 5.60943C8.7617 5.66569 8.95045 5.72709 9.14435 5.79505C9.33824 5.86301 9.527 5.9424 9.71262 6.0352C9.89823 6.12801 10.0639 6.24395 10.2081 6.38645C10.3523 6.52894 10.4682 6.70285 10.5576 6.90674C10.647 7.11063 10.6901 7.35735 10.6901 7.64549C10.6901 7.96531 10.6355 8.26515 10.5245 8.54329C10.4134 8.82171 10.2529 9.06501 10.0407 9.27376C9.83027 9.48079 9.57012 9.64499 9.26057 9.76407C8.95102 9.88314 8.5995 9.94311 8.20685 9.94311C7.99154 9.94311 7.77108 9.9217 7.54749 9.87686C7.32389 9.83203 7.10687 9.76921 6.89812 9.68953C6.68938 9.60843 6.49234 9.5122 6.30844 9.4014C6.12454 9.29032 5.96377 9.1661 5.82812 9.03017L6.30358 8.27972C6.34156 8.22517 6.39125 8.18034 6.45265 8.14379C6.51404 8.10724 6.58201 8.08925 6.65482 8.08925C6.74935 8.08925 6.84529 8.11895 6.94296 8.18034C7.0389 8.24002 7.14828 8.30799 7.27107 8.38081C7.39357 8.45362 7.53293 8.51987 7.69198 8.58127C7.85104 8.64095 8.03808 8.67236 8.25368 8.67236C8.54524 8.67236 8.77226 8.60783 8.93446 8.48018C9.09695 8.35082 9.17633 8.14893 9.17633 7.86879C9.17633 7.70631 9.1315 7.57552 9.04383 7.47443C8.95445 7.37335 8.83851 7.28882 8.6943 7.22257C8.5501 7.15632 8.38618 7.09664 8.20228 7.04695C8.01838 6.99555 7.82962 6.93929 7.63573 6.8779C7.44183 6.8165 7.25308 6.74026 7.06917 6.64916C6.88527 6.55807 6.72136 6.44042 6.57715 6.29307C6.43294 6.14572 6.31529 5.96182 6.22763 5.74136C6.13824 5.52091 6.09512 5.24934 6.09512 4.92637C6.09512 4.66622 6.14824 4.41293 6.25247 4.16592C6.3567 3.91919 6.5109 3.69874 6.71479 3.50485C6.91868 3.31095 7.16712 3.15703 7.46182 3.0411C7.75681 2.92516 8.09462 2.86719 8.47556 2.86719C8.68774 2.86719 8.89477 2.88375 9.09695 2.91687C9.29912 2.95 9.48959 2.99969 9.67007 3.06423C9.85054 3.12876 10.0196 3.20672 10.1769 3.29781C10.3343 3.38891 10.4734 3.49 10.5979 3.60422L10.1986 4.35125L10.1944 4.34754Z" fill="#00A39D"/>
<path d="M13.468 0.228834C13.4645 0.170865 13.458 0.112896 13.4497 0.0566406C13.8241 0.44272 14.3575 0.668027 14.9358 0.631475C15.2125 0.613199 15.4709 0.536955 15.7011 0.416162C15.522 0.72771 15.4295 1.0938 15.4543 1.47988C15.484 1.95705 15.6896 2.38111 16.0009 2.6958C15.8418 2.66439 15.6745 2.65096 15.504 2.66267C14.8281 2.70579 14.2567 3.09673 13.9551 3.65014C13.8358 2.83172 13.2013 2.19549 12.4062 2.05471C13.0773 1.7266 13.5197 1.01755 13.4697 0.227406L13.468 0.228834Z" fill="#F9AD3C"/>
</svg>
