<svg width="16" height="16" viewBox="0 0 16 16" fill="none" xmlns="http://www.w3.org/2000/svg">
<path d="M9.9987 15.1668H5.9987C2.3787 15.1668 0.832031 13.6202 0.832031 10.0002V6.00016C0.832031 2.38016 2.3787 0.833496 5.9987 0.833496H7.33203C7.60536 0.833496 7.83203 1.06016 7.83203 1.3335C7.83203 1.60683 7.60536 1.8335 7.33203 1.8335H5.9987C2.92536 1.8335 1.83203 2.92683 1.83203 6.00016V10.0002C1.83203 13.0735 2.92536 14.1668 5.9987 14.1668H9.9987C13.072 14.1668 14.1654 13.0735 14.1654 10.0002V8.66683C14.1654 8.3935 14.392 8.16683 14.6654 8.16683C14.9387 8.16683 15.1654 8.3935 15.1654 8.66683V10.0002C15.1654 13.6202 13.6187 15.1668 9.9987 15.1668Z" fill="#292D32"/>
<path d="M5.66493 11.7934C5.25826 11.7934 4.88493 11.6467 4.6116 11.38C4.28493 11.0534 4.14493 10.58 4.21826 10.08L4.50493 8.07337C4.55826 7.68671 4.8116 7.18671 5.08493 6.91337L10.3383 1.66004C11.6649 0.333372 13.0116 0.333372 14.3383 1.66004C15.0649 2.38671 15.3916 3.12671 15.3249 3.86671C15.2649 4.46671 14.9449 5.05337 14.3383 5.65337L9.08493 10.9067C8.8116 11.18 8.3116 11.4334 7.92493 11.4867L5.91826 11.7734C5.8316 11.7934 5.74493 11.7934 5.66493 11.7934ZM11.0449 2.36671L5.7916 7.62004C5.66493 7.74671 5.51826 8.04004 5.4916 8.21337L5.20493 10.22C5.17826 10.4134 5.21826 10.5734 5.31826 10.6734C5.41826 10.7734 5.57826 10.8134 5.7716 10.7867L7.77826 10.5C7.9516 10.4734 8.2516 10.3267 8.3716 10.2L13.6249 4.94671C14.0583 4.51337 14.2849 4.12671 14.3183 3.76671C14.3583 3.33337 14.1316 2.87337 13.6249 2.36004C12.5583 1.29337 11.8249 1.59337 11.0449 2.36671Z" fill="#292D32"/>
<path d="M13.233 6.55319C13.1864 6.55319 13.1397 6.54652 13.0997 6.53319C11.3464 6.03986 9.95305 4.64652 9.45971 2.89319C9.38638 2.62652 9.53971 2.35319 9.80638 2.27319C10.073 2.19986 10.3464 2.35319 10.4197 2.61986C10.8197 4.03986 11.9464 5.16652 13.3664 5.56652C13.633 5.63986 13.7864 5.91985 13.713 6.18652C13.653 6.41319 13.453 6.55319 13.233 6.55319Z" fill="#292D32"/>
</svg>
