<svg width="20" height="20" viewBox="0 0 20 20" fill="none" xmlns="http://www.w3.org/2000/svg">
<path opacity="0.4" d="M17.168 3.41667V5.25C17.168 5.91667 16.7513 6.75 16.3346 7.16667L12.7513 10.3333C12.2513 10.75 11.918 11.5833 11.918 12.25V15.8333C11.918 16.3333 11.5846 17 11.168 17.25L10.0013 18C8.91797 18.6667 7.41797 17.9167 7.41797 16.5833V12.1667C7.41797 11.5833 7.08464 10.8333 6.7513 10.4167L5.91797 9.54167L10.768 1.75H15.5013C16.418 1.75 17.168 2.5 17.168 3.41667Z" fill="#009B4C"/>
<path d="M9.41536 1.75L5.0987 8.675L3.58203 7.08333C3.16536 6.66667 2.83203 5.91667 2.83203 5.41667V3.5C2.83203 2.5 3.58203 1.75 4.4987 1.75H9.41536Z" fill="#009B4C"/>
</svg>
