<svg width="40" height="41" viewBox="0 0 40 41" fill="none" xmlns="http://www.w3.org/2000/svg">
<path opacity="0.4" d="M36.6654 13.5168V23.6668L33.9487 21.3335C32.6487 20.2168 30.5487 20.2168 29.2487 21.3335L22.3154 27.2835C21.0154 28.4002 18.9154 28.4002 17.6154 27.2835L17.0487 26.8168C15.8654 25.7835 13.982 25.6835 12.6487 26.5835L4.4487 32.0835L4.26536 32.2168C3.6487 30.8835 3.33203 29.3002 3.33203 27.4835V13.5168C3.33203 7.45016 6.9487 3.8335 13.0154 3.8335H26.982C33.0487 3.8335 36.6654 7.45016 36.6654 13.5168Z" fill="#009B4C"/>
<path d="M15.0018 17.8C17.1926 17.8 18.9685 16.0241 18.9685 13.8334C18.9685 11.6426 17.1926 9.8667 15.0018 9.8667C12.8111 9.8667 11.0352 11.6426 11.0352 13.8334C11.0352 16.0241 12.8111 17.8 15.0018 17.8Z" fill="#009B4C"/>
<path d="M36.6656 23.6664V27.4831C36.6656 33.5498 33.049 37.1664 26.9823 37.1664H13.0156C8.76562 37.1664 5.69896 35.3831 4.26562 32.2164L4.44896 32.0831L12.649 26.5831C13.9823 25.6831 15.8656 25.7831 17.049 26.8164L17.6156 27.2831C18.9156 28.3998 21.0156 28.3998 22.3156 27.2831L29.249 21.3331C30.549 20.2164 32.649 20.2164 33.949 21.3331L36.6656 23.6664Z" fill="#009B4C"/>
</svg>
