<svg width="16" height="16" viewBox="0 0 16 16" fill="none" xmlns="http://www.w3.org/2000/svg">
<path d="M13.9985 4.48681C13.9851 4.48681 13.9651 4.48681 13.9451 4.48681C10.4185 4.13348 6.89848 4.00015 3.41181 4.35348L2.05181 4.48681C1.77181 4.51348 1.52515 4.31348 1.49848 4.03348C1.47181 3.75348 1.67181 3.51348 1.94515 3.48681L3.30515 3.35348C6.85181 2.99348 10.4451 3.13348 14.0451 3.48681C14.3185 3.51348 14.5185 3.76015 14.4918 4.03348C14.4718 4.29348 14.2518 4.48681 13.9985 4.48681Z" fill="#292D32"/>
<path d="M5.66846 3.8135C5.6418 3.8135 5.61513 3.8135 5.5818 3.80683C5.31513 3.76016 5.12846 3.50016 5.17513 3.2335L5.3218 2.36016C5.42846 1.72016 5.57513 0.833496 7.12846 0.833496H8.87513C10.4351 0.833496 10.5818 1.7535 10.6818 2.36683L10.8285 3.2335C10.8751 3.50683 10.6885 3.76683 10.4218 3.80683C10.1485 3.8535 9.88846 3.66683 9.84846 3.40016L9.7018 2.5335C9.60846 1.9535 9.58846 1.84016 8.8818 1.84016H7.13513C6.42846 1.84016 6.41513 1.9335 6.31513 2.52683L6.1618 3.3935C6.1218 3.64016 5.90846 3.8135 5.66846 3.8135Z" fill="#292D32"/>
<path d="M10.1416 15.1667H5.86156C3.53489 15.1667 3.44156 13.88 3.36823 12.84L2.93489 6.12672C2.91489 5.85338 3.12823 5.61338 3.40156 5.59338C3.68156 5.58005 3.91489 5.78672 3.93489 6.06005L4.36823 12.7734C4.44156 13.7867 4.46823 14.1667 5.86156 14.1667H10.1416C11.5416 14.1667 11.5682 13.7867 11.6349 12.7734L12.0682 6.06005C12.0882 5.78672 12.3282 5.58005 12.6016 5.59338C12.8749 5.61338 13.0882 5.84672 13.0682 6.12672L12.6349 12.84C12.5616 13.88 12.4682 15.1667 10.1416 15.1667Z" fill="#292D32"/>
<path d="M9.10672 11.5H6.88672C6.61339 11.5 6.38672 11.2733 6.38672 11C6.38672 10.7267 6.61339 10.5 6.88672 10.5H9.10672C9.38005 10.5 9.60672 10.7267 9.60672 11C9.60672 11.2733 9.38005 11.5 9.10672 11.5Z" fill="#292D32"/>
<path d="M9.66536 8.8335H6.33203C6.0587 8.8335 5.83203 8.60683 5.83203 8.3335C5.83203 8.06016 6.0587 7.8335 6.33203 7.8335H9.66536C9.9387 7.8335 10.1654 8.06016 10.1654 8.3335C10.1654 8.60683 9.9387 8.8335 9.66536 8.8335Z" fill="#292D32"/>
</svg>
